<?xml version="1.0" encoding="us-ascii" standalone="no"?><svg xmlns="http://www.w3.org/2000/svg" xmlns:xlink="http://www.w3.org/1999/xlink" contentStyleType="text/css" height="512px" preserveAspectRatio="none" style="width:391px;height:512px;background:#FFFFFF;" version="1.1" viewBox="0 0 391 512" width="391px" zoomAndPan="magnify"><defs/><g><!--class GameManager--><g id="elem_GameManager"><rect codeLine="1" fill="#F1F1F1" height="390.2344" id="GameManager" rx="2.5" ry="2.5" style="stroke:#181818;stroke-width:0.5;" width="319" x="7" y="115"/><ellipse cx="115.75" cy="131" fill="#ADD1B2" rx="11" ry="11" style="stroke:#181818;stroke-width:1.0;"/><path d="M115.6875,126.8281 Q114.9375,126.8281 114.375,127.125 Q113.8125,127.4063 113.4219,127.9375 Q113.0313,128.4688 112.8281,129.25 Q112.6406,130.0156 112.6406,130.9688 Q112.6406,131.9375 112.8125,132.7031 Q113,133.4531 113.3594,133.9688 Q113.7344,134.4844 114.3125,134.7656 Q114.8906,135.0313 115.6875,135.0313 Q116.4219,135.0313 117.1563,134.8594 Q117.9063,134.6875 118.7813,134.3906 L118.7813,136.5469 Q118.375,136.7031 117.9844,136.8281 Q117.5938,136.9375 117.1875,137.0156 Q116.7813,137.0938 116.3594,137.125 Q115.9375,137.1719 115.4375,137.1719 Q114.0313,137.1719 113,136.7188 Q111.9844,136.2656 111.3125,135.4531 Q110.6406,134.6406 110.3125,133.5 Q109.9844,132.3438 109.9844,130.9531 Q109.9844,129.5781 110.3594,128.4219 Q110.7344,127.2656 111.4531,126.4375 Q112.1719,125.6094 113.2344,125.1563 Q114.2969,124.6875 115.6875,124.6875 Q116.5938,124.6875 117.5,124.9219 Q118.4063,125.1406 119.2344,125.5469 L118.4063,127.6406 Q117.7188,127.3125 117.0313,127.0781 Q116.3438,126.8281 115.6875,126.8281 Z " fill="#000000"/><text fill="#000000" font-family="sans-serif" font-size="14" lengthAdjust="spacing" textLength="93" x="136.25" y="135.8467">GameManager</text><line style="stroke:#181818;stroke-width:0.5;" x1="8" x2="325" y1="147" y2="147"/><line style="stroke:#181818;stroke-width:0.5;" x1="8" x2="325" y1="155" y2="155"/><ellipse cx="18" cy="168.6484" fill="#84BE84" rx="3" ry="3" style="stroke:#038048;stroke-width:1.0;"/><text fill="#000000" font-family="sans-serif" font-size="14" lengthAdjust="spacing" textLength="211" x="27" y="171.9951">GetLeftPartPosition() : Transform</text><ellipse cx="18" cy="184.9453" fill="#84BE84" rx="3" ry="3" style="stroke:#038048;stroke-width:1.0;"/><text fill="#000000" font-family="sans-serif" font-size="14" lengthAdjust="spacing" textLength="218" x="27" y="188.292">GetRightPartPosition() : Transform</text><ellipse cx="18" cy="201.2422" fill="#84BE84" rx="3" ry="3" style="stroke:#038048;stroke-width:1.0;"/><text fill="#000000" font-family="sans-serif" font-size="14" lengthAdjust="spacing" textLength="220" x="27" y="204.5889">GetFrontPartPosition() : Transform</text><ellipse cx="18" cy="217.5391" fill="#84BE84" rx="3" ry="3" style="stroke:#038048;stroke-width:1.0;"/><text fill="#000000" font-family="sans-serif" font-size="14" lengthAdjust="spacing" textLength="215" x="27" y="220.8857">GetBackPartPosition() : Transform</text><ellipse cx="18" cy="233.8359" fill="#84BE84" rx="3" ry="3" style="stroke:#038048;stroke-width:1.0;"/><text fill="#000000" font-family="sans-serif" font-size="14" lengthAdjust="spacing" textLength="246" x="27" y="237.1826">GetConveyorPartPosition() : Transform</text><ellipse cx="18" cy="250.1328" fill="#84BE84" rx="3" ry="3" style="stroke:#038048;stroke-width:1.0;"/><text fill="#000000" font-family="sans-serif" font-size="14" lengthAdjust="spacing" textLength="293" x="27" y="253.4795">GetConveyorDownScrewPosition() : Transform</text><ellipse cx="18" cy="266.4297" fill="#84BE84" rx="3" ry="3" style="stroke:#038048;stroke-width:1.0;"/><text fill="#000000" font-family="sans-serif" font-size="14" lengthAdjust="spacing" textLength="210" x="27" y="269.7764">GetUpPartsPosition() : Transform</text><ellipse cx="18" cy="282.7266" fill="#84BE84" rx="3" ry="3" style="stroke:#038048;stroke-width:1.0;"/><text fill="#000000" font-family="sans-serif" font-size="14" lengthAdjust="spacing" textLength="200" x="27" y="286.0732">GetConveyorJos() : GameObject</text><ellipse cx="18" cy="299.0234" fill="#84BE84" rx="3" ry="3" style="stroke:#038048;stroke-width:1.0;"/><text fill="#000000" font-family="sans-serif" font-size="14" lengthAdjust="spacing" textLength="267" x="27" y="302.3701">GetConveyorLateralStanga() : GameObject</text><ellipse cx="18" cy="315.3203" fill="#84BE84" rx="3" ry="3" style="stroke:#038048;stroke-width:1.0;"/><text fill="#000000" font-family="sans-serif" font-size="14" lengthAdjust="spacing" textLength="277" x="27" y="318.667">GetConveyorLateralDreapta() : GameObject</text><ellipse cx="18" cy="331.6172" fill="#84BE84" rx="3" ry="3" style="stroke:#038048;stroke-width:1.0;"/><text fill="#000000" font-family="sans-serif" font-size="14" lengthAdjust="spacing" textLength="203" x="27" y="334.9639">GetConveyorSus() : GameObject</text><ellipse cx="18" cy="347.9141" fill="#84BE84" rx="3" ry="3" style="stroke:#038048;stroke-width:1.0;"/><text fill="#000000" font-family="sans-serif" font-size="14" lengthAdjust="spacing" textLength="237" x="27" y="351.2607">GetConveyorPrincipal() : GameObject</text><ellipse cx="18" cy="364.2109" fill="#84BE84" rx="3" ry="3" style="stroke:#038048;stroke-width:1.0;"/><text fill="#000000" font-family="sans-serif" font-size="14" lengthAdjust="spacing" textLength="189" x="27" y="367.5576">GetParteaFata() : GameObject</text><ellipse cx="18" cy="380.5078" fill="#84BE84" rx="3" ry="3" style="stroke:#038048;stroke-width:1.0;"/><text fill="#000000" font-family="sans-serif" font-size="14" lengthAdjust="spacing" textLength="198" x="27" y="383.8545">GetParteaSpate() : GameObject</text><ellipse cx="18" cy="396.8047" fill="#84BE84" rx="3" ry="3" style="stroke:#038048;stroke-width:1.0;"/><text fill="#000000" font-family="sans-serif" font-size="14" lengthAdjust="spacing" textLength="243" x="27" y="400.1514">GetSurubOrizontalFata() : GameObject</text><ellipse cx="18" cy="413.1016" fill="#84BE84" rx="3" ry="3" style="stroke:#038048;stroke-width:1.0;"/><text fill="#000000" font-family="sans-serif" font-size="14" lengthAdjust="spacing" textLength="252" x="27" y="416.4482">GetSurubOrizontalSpate() : GameObject</text><ellipse cx="18" cy="429.3984" fill="#84BE84" rx="3" ry="3" style="stroke:#038048;stroke-width:1.0;"/><text fill="#000000" font-family="sans-serif" font-size="14" lengthAdjust="spacing" textLength="207" x="27" y="432.7451">GetSurubVertical() : GameObject</text><ellipse cx="18" cy="445.6953" fill="#84BE84" rx="3" ry="3" style="stroke:#038048;stroke-width:1.0;"/><text fill="#000000" font-family="sans-serif" font-size="14" lengthAdjust="spacing" textLength="255" x="27" y="449.042">GetParteaLateralaStanga() : GameObject</text><ellipse cx="18" cy="461.9922" fill="#84BE84" rx="3" ry="3" style="stroke:#038048;stroke-width:1.0;"/><text fill="#000000" font-family="sans-serif" font-size="14" lengthAdjust="spacing" textLength="265" x="27" y="465.3389">GetParteaLateralaDreapta() : GameObject</text><ellipse cx="18" cy="478.2891" fill="#84BE84" rx="3" ry="3" style="stroke:#038048;stroke-width:1.0;"/><text fill="#000000" font-family="sans-serif" font-size="14" lengthAdjust="spacing" textLength="259" x="27" y="481.6357">GetSuruburiPartiLaterale() : GameObject</text><ellipse cx="18" cy="494.5859" fill="#84BE84" rx="3" ry="3" style="stroke:#038048;stroke-width:1.0;"/><text fill="#000000" font-family="sans-serif" font-size="14" lengthAdjust="spacing" textLength="212" x="27" y="497.9326">GetDezasamblare() : GameObject</text></g><!--class MonoBehaviour--><g id="elem_MonoBehaviour"><rect fill="#F1F1F1" height="48" id="MonoBehaviour" rx="2.5" ry="2.5" style="stroke:#181818;stroke-width:0.5;" width="133" x="100" y="7"/><ellipse cx="115" cy="23" fill="#ADD1B2" rx="11" ry="11" style="stroke:#181818;stroke-width:1.0;"/><path d="M114.9375,18.8281 Q114.1875,18.8281 113.625,19.125 Q113.0625,19.4063 112.6719,19.9375 Q112.2813,20.4688 112.0781,21.25 Q111.8906,22.0156 111.8906,22.9688 Q111.8906,23.9375 112.0625,24.7031 Q112.25,25.4531 112.6094,25.9688 Q112.9844,26.4844 113.5625,26.7656 Q114.1406,27.0313 114.9375,27.0313 Q115.6719,27.0313 116.4063,26.8594 Q117.1563,26.6875 118.0313,26.3906 L118.0313,28.5469 Q117.625,28.7031 117.2344,28.8281 Q116.8438,28.9375 116.4375,29.0156 Q116.0313,29.0938 115.6094,29.125 Q115.1875,29.1719 114.6875,29.1719 Q113.2813,29.1719 112.25,28.7188 Q111.2344,28.2656 110.5625,27.4531 Q109.8906,26.6406 109.5625,25.5 Q109.2344,24.3438 109.2344,22.9531 Q109.2344,21.5781 109.6094,20.4219 Q109.9844,19.2656 110.7031,18.4375 Q111.4219,17.6094 112.4844,17.1563 Q113.5469,16.6875 114.9375,16.6875 Q115.8438,16.6875 116.75,16.9219 Q117.6563,17.1406 118.4844,17.5469 L117.6563,19.6406 Q116.9688,19.3125 116.2813,19.0781 Q115.5938,18.8281 114.9375,18.8281 Z " fill="#000000"/><text fill="#000000" font-family="sans-serif" font-size="14" lengthAdjust="spacing" textLength="101" x="129" y="27.8467">MonoBehaviour</text><line style="stroke:#181818;stroke-width:0.5;" x1="101" x2="232" y1="39" y2="39"/><line style="stroke:#181818;stroke-width:0.5;" x1="101" x2="232" y1="47" y2="47"/></g><!--reverse link MonoBehaviour to GameManager--><g id="link_MonoBehaviour_GameManager"><path codeLine="24" d="M166.5,75.24 C166.5,86.93 166.5,100.37 166.5,114.78 " fill="none" id="MonoBehaviour-backto-GameManager" style="stroke:#181818;stroke-width:1.0;"/><polygon fill="none" points="159.5,75.14,166.5,55.14,173.5,75.14,159.5,75.14" style="stroke:#181818;stroke-width:1.0;"/></g><!--link GameManager to GameManager--><g id="link_GameManager_GameManager"><path codeLine="25" d="M326.36,264.18 C347.21,272.06 361,287.33 361,310 C361,330.9 349.28,345.51 331.12,353.84 " fill="none" id="GameManager-to-GameManager" style="stroke:#181818;stroke-width:1.0;"/><polygon fill="#181818" points="326.36,355.82,336.2058,356.0659,330.9783,353.904,333.1402,348.6766,326.36,355.82" style="stroke:#181818;stroke-width:1.0;"/><text fill="#000000" font-family="sans-serif" font-size="13" lengthAdjust="spacing" textLength="50" x="334.1588" y="354.5014">Instance</text></g><!--SRC=[bTDHJy8m40VmztsAXYUDsHSWnWTS8188YrFVRyqngbrlkROGKR-x6v8uGaPBdt_txzqrbHgi5JEeSGa6AcJnbOZst8aPkWMkNGxiShBAAJ8tjs8iNXYCNHFN_-vPLPieE6KoKN02yYF6FPBPuYVnDJQZdIaauovKyDfqiJOsTqxsGBfbhiftbExSBC0XWouSc0fYTSO8ZGlpmeSRo5aPgHhGWxAR6M4A5oxy8qNJjZTe2i- -NB7QjoyE-cBSAOs8VKDsIWPdEAuF0ji-nQ5b7nhmhBegTImQRZV3FLYeImryXdwI9HcQu0QsYZoB- -yqxV_4fFyhq_H1Z9wCRKUHEEgpNm00]--></g></svg>