<?xml version="1.0" encoding="us-ascii" standalone="no"?><svg xmlns="http://www.w3.org/2000/svg" xmlns:xlink="http://www.w3.org/1999/xlink" contentStyleType="text/css" height="343px" preserveAspectRatio="none" style="width:333px;height:343px;background:#FFFFFF;" version="1.1" viewBox="0 0 333 343" width="333px" zoomAndPan="magnify"><defs/><g><!--class ArduinoConnector--><g id="elem_ArduinoConnector"><rect codeLine="1" fill="#F1F1F1" height="113.1875" id="ArduinoConnector" rx="2.5" ry="2.5" style="stroke:#181818;stroke-width:0.5;" width="319" x="7" y="115"/><ellipse cx="104.25" cy="131" fill="#ADD1B2" rx="11" ry="11" style="stroke:#181818;stroke-width:1.0;"/><path d="M104.1875,126.8281 Q103.4375,126.8281 102.875,127.125 Q102.3125,127.4063 101.9219,127.9375 Q101.5313,128.4688 101.3281,129.25 Q101.1406,130.0156 101.1406,130.9688 Q101.1406,131.9375 101.3125,132.7031 Q101.5,133.4531 101.8594,133.9688 Q102.2344,134.4844 102.8125,134.7656 Q103.3906,135.0313 104.1875,135.0313 Q104.9219,135.0313 105.6563,134.8594 Q106.4063,134.6875 107.2813,134.3906 L107.2813,136.5469 Q106.875,136.7031 106.4844,136.8281 Q106.0938,136.9375 105.6875,137.0156 Q105.2813,137.0938 104.8594,137.125 Q104.4375,137.1719 103.9375,137.1719 Q102.5313,137.1719 101.5,136.7188 Q100.4844,136.2656 99.8125,135.4531 Q99.1406,134.6406 98.8125,133.5 Q98.4844,132.3438 98.4844,130.9531 Q98.4844,129.5781 98.8594,128.4219 Q99.2344,127.2656 99.9531,126.4375 Q100.6719,125.6094 101.7344,125.1563 Q102.7969,124.6875 104.1875,124.6875 Q105.0938,124.6875 106,124.9219 Q106.9063,125.1406 107.7344,125.5469 L106.9063,127.6406 Q106.2188,127.3125 105.5313,127.0781 Q104.8438,126.8281 104.1875,126.8281 Z " fill="#000000"/><text fill="#000000" font-family="sans-serif" font-size="14" lengthAdjust="spacing" textLength="116" x="124.75" y="135.8467">ArduinoConnector</text><line style="stroke:#181818;stroke-width:0.5;" x1="8" x2="325" y1="147" y2="147"/><ellipse cx="18" cy="160.6484" fill="none" rx="3" ry="3" style="stroke:#038048;stroke-width:1.0;"/><text fill="#000000" font-family="sans-serif" font-size="14" lengthAdjust="spacing" textLength="230" x="27" y="163.9951">arduinoIP : string = "192.168.43.50"</text><ellipse cx="18" cy="176.9453" fill="none" rx="3" ry="3" style="stroke:#038048;stroke-width:1.0;"/><text fill="#000000" font-family="sans-serif" font-size="14" lengthAdjust="spacing" textLength="161" x="27" y="180.292">arduinoPort : int = 12345</text><line style="stroke:#181818;stroke-width:0.5;" x1="8" x2="325" y1="187.5938" y2="187.5938"/><ellipse cx="18" cy="201.2422" fill="#84BE84" rx="3" ry="3" style="stroke:#038048;stroke-width:1.0;"/><text fill="#000000" font-family="sans-serif" font-size="14" lengthAdjust="spacing" textLength="164" x="27" y="204.5889">ConnectToArduino() : void</text><ellipse cx="18" cy="217.5391" fill="#84BE84" rx="3" ry="3" style="stroke:#038048;stroke-width:1.0;"/><text fill="#000000" font-family="sans-serif" font-size="14" lengthAdjust="spacing" textLength="293" x="27" y="220.8857">SendMessageToArduino(message:string) : void</text></g><!--class MonoBehaviour--><g id="elem_MonoBehaviour"><rect fill="#F1F1F1" height="48" id="MonoBehaviour" rx="2.5" ry="2.5" style="stroke:#181818;stroke-width:0.5;" width="133" x="100" y="7"/><ellipse cx="115" cy="23" fill="#ADD1B2" rx="11" ry="11" style="stroke:#181818;stroke-width:1.0;"/><path d="M114.9375,18.8281 Q114.1875,18.8281 113.625,19.125 Q113.0625,19.4063 112.6719,19.9375 Q112.2813,20.4688 112.0781,21.25 Q111.8906,22.0156 111.8906,22.9688 Q111.8906,23.9375 112.0625,24.7031 Q112.25,25.4531 112.6094,25.9688 Q112.9844,26.4844 113.5625,26.7656 Q114.1406,27.0313 114.9375,27.0313 Q115.6719,27.0313 116.4063,26.8594 Q117.1563,26.6875 118.0313,26.3906 L118.0313,28.5469 Q117.625,28.7031 117.2344,28.8281 Q116.8438,28.9375 116.4375,29.0156 Q116.0313,29.0938 115.6094,29.125 Q115.1875,29.1719 114.6875,29.1719 Q113.2813,29.1719 112.25,28.7188 Q111.2344,28.2656 110.5625,27.4531 Q109.8906,26.6406 109.5625,25.5 Q109.2344,24.3438 109.2344,22.9531 Q109.2344,21.5781 109.6094,20.4219 Q109.9844,19.2656 110.7031,18.4375 Q111.4219,17.6094 112.4844,17.1563 Q113.5469,16.6875 114.9375,16.6875 Q115.8438,16.6875 116.75,16.9219 Q117.6563,17.1406 118.4844,17.5469 L117.6563,19.6406 Q116.9688,19.3125 116.2813,19.0781 Q115.5938,18.8281 114.9375,18.8281 Z " fill="#000000"/><text fill="#000000" font-family="sans-serif" font-size="14" lengthAdjust="spacing" textLength="101" x="129" y="27.8467">MonoBehaviour</text><line style="stroke:#181818;stroke-width:0.5;" x1="101" x2="232" y1="39" y2="39"/><line style="stroke:#181818;stroke-width:0.5;" x1="101" x2="232" y1="47" y2="47"/></g><!--class TMP_Text--><g id="elem_TMP_Text"><rect fill="#F1F1F1" height="48" id="TMP_Text" rx="2.5" ry="2.5" style="stroke:#181818;stroke-width:0.5;" width="92" x="120.5" y="288"/><ellipse cx="135.5" cy="304" fill="#ADD1B2" rx="11" ry="11" style="stroke:#181818;stroke-width:1.0;"/><path d="M135.4375,299.8281 Q134.6875,299.8281 134.125,300.125 Q133.5625,300.4063 133.1719,300.9375 Q132.7813,301.4688 132.5781,302.25 Q132.3906,303.0156 132.3906,303.9688 Q132.3906,304.9375 132.5625,305.7031 Q132.75,306.4531 133.1094,306.9688 Q133.4844,307.4844 134.0625,307.7656 Q134.6406,308.0313 135.4375,308.0313 Q136.1719,308.0313 136.9063,307.8594 Q137.6563,307.6875 138.5313,307.3906 L138.5313,309.5469 Q138.125,309.7031 137.7344,309.8281 Q137.3438,309.9375 136.9375,310.0156 Q136.5313,310.0938 136.1094,310.125 Q135.6875,310.1719 135.1875,310.1719 Q133.7813,310.1719 132.75,309.7188 Q131.7344,309.2656 131.0625,308.4531 Q130.3906,307.6406 130.0625,306.5 Q129.7344,305.3438 129.7344,303.9531 Q129.7344,302.5781 130.1094,301.4219 Q130.4844,300.2656 131.2031,299.4375 Q131.9219,298.6094 132.9844,298.1563 Q134.0469,297.6875 135.4375,297.6875 Q136.3438,297.6875 137.25,297.9219 Q138.1563,298.1406 138.9844,298.5469 L138.1563,300.6406 Q137.4688,300.3125 136.7813,300.0781 Q136.0938,299.8281 135.4375,299.8281 Z " fill="#000000"/><text fill="#000000" font-family="sans-serif" font-size="14" lengthAdjust="spacing" textLength="60" x="149.5" y="308.8467">TMP_Text</text><line style="stroke:#181818;stroke-width:0.5;" x1="121.5" x2="211.5" y1="320" y2="320"/><line style="stroke:#181818;stroke-width:0.5;" x1="121.5" x2="211.5" y1="328" y2="328"/></g><!--reverse link MonoBehaviour to ArduinoConnector--><g id="link_MonoBehaviour_ArduinoConnector"><path codeLine="7" d="M166.5,75.3 C166.5,87.85 166.5,101.74 166.5,114.94 " fill="none" id="MonoBehaviour-backto-ArduinoConnector" style="stroke:#181818;stroke-width:1.0;"/><polygon fill="none" points="159.5,75.18,166.5,55.18,173.5,75.18,159.5,75.18" style="stroke:#181818;stroke-width:1.0;"/></g><!--link ArduinoConnector to TMP_Text--><g id="link_ArduinoConnector_TMP_Text"><path codeLine="8" d="M166.5,228.04 C166.5,246.83 166.5,267.03 166.5,282.8 " fill="none" id="ArduinoConnector-to-TMP_Text" style="stroke:#181818;stroke-width:1.0;"/><polygon fill="#181818" points="166.5,287.96,170.5,278.96,166.5,282.96,162.5,278.96,166.5,287.96" style="stroke:#181818;stroke-width:1.0;"/><text fill="#000000" font-family="sans-serif" font-size="13" lengthAdjust="spacing" textLength="97" x="57.0719" y="276.9618">connectionLabel</text></g><!--SRC=[PO_D2i8m48JlVOeb9qLIx9zeKK4z2HOAzYwn3JLGiv2aHL3VtK228jtRx7oxmzGTqnfsgkc5n0DAoMk32fu1s9a1SyQnX1oqKKAsi04IhU8mMYp3D0cpEVb7IrJ6ma8QIqPnacRUzyyhz66JgSK658ttprms1TUQjVp7tDqYTzdVYtTGeCGzlx51OAzW_Q9qL28OjQ9q2wHsKg0yiIll25H5UQdumtm0]--></g></svg>