<?xml version="1.0" encoding="us-ascii" standalone="no"?><svg xmlns="http://www.w3.org/2000/svg" xmlns:xlink="http://www.w3.org/1999/xlink" contentStyleType="text/css" height="202px" preserveAspectRatio="none" style="width:204px;height:202px;background:#FFFFFF;" version="1.1" viewBox="0 0 204 202" width="204px" zoomAndPan="magnify"><defs/><g><!--class ControlEkoSkeleton--><g id="elem_ControlEkoSkeleton"><rect codeLine="1" fill="#F1F1F1" height="80.5938" id="ControlEkoSkeleton" rx="2.5" ry="2.5" style="stroke:#181818;stroke-width:0.5;" width="190" x="7" y="115"/><ellipse cx="37.3" cy="131" fill="#ADD1B2" rx="11" ry="11" style="stroke:#181818;stroke-width:1.0;"/><path d="M37.2375,126.8281 Q36.4875,126.8281 35.925,127.125 Q35.3625,127.4063 34.9719,127.9375 Q34.5813,128.4688 34.3781,129.25 Q34.1906,130.0156 34.1906,130.9688 Q34.1906,131.9375 34.3625,132.7031 Q34.55,133.4531 34.9094,133.9688 Q35.2844,134.4844 35.8625,134.7656 Q36.4406,135.0313 37.2375,135.0313 Q37.9719,135.0313 38.7063,134.8594 Q39.4563,134.6875 40.3313,134.3906 L40.3313,136.5469 Q39.925,136.7031 39.5344,136.8281 Q39.1438,136.9375 38.7375,137.0156 Q38.3313,137.0938 37.9094,137.125 Q37.4875,137.1719 36.9875,137.1719 Q35.5813,137.1719 34.55,136.7188 Q33.5344,136.2656 32.8625,135.4531 Q32.1906,134.6406 31.8625,133.5 Q31.5344,132.3438 31.5344,130.9531 Q31.5344,129.5781 31.9094,128.4219 Q32.2844,127.2656 33.0031,126.4375 Q33.7219,125.6094 34.7844,125.1563 Q35.8469,124.6875 37.2375,124.6875 Q38.1438,124.6875 39.05,124.9219 Q39.9563,125.1406 40.7844,125.5469 L39.9563,127.6406 Q39.2688,127.3125 38.5813,127.0781 Q37.8938,126.8281 37.2375,126.8281 Z " fill="#000000"/><text fill="#000000" font-family="sans-serif" font-size="14" lengthAdjust="spacing" textLength="124" x="54.7" y="135.8467">ControlEkoSkeleton</text><line style="stroke:#181818;stroke-width:0.5;" x1="8" x2="196" y1="147" y2="147"/><line style="stroke:#181818;stroke-width:0.5;" x1="8" x2="196" y1="155" y2="155"/><ellipse cx="18" cy="168.6484" fill="#84BE84" rx="3" ry="3" style="stroke:#038048;stroke-width:1.0;"/><text fill="#000000" font-family="sans-serif" font-size="14" lengthAdjust="spacing" textLength="164" x="27" y="171.9951">ToggleExoskeleton() : void</text><ellipse cx="18" cy="184.9453" fill="#84BE84" rx="3" ry="3" style="stroke:#038048;stroke-width:1.0;"/><text fill="#000000" font-family="sans-serif" font-size="14" lengthAdjust="spacing" textLength="129" x="27" y="188.292">ToggleFollow() : void</text></g><!--class MonoBehaviour--><g id="elem_MonoBehaviour"><rect fill="#F1F1F1" height="48" id="MonoBehaviour" rx="2.5" ry="2.5" style="stroke:#181818;stroke-width:0.5;" width="133" x="35.5" y="7"/><ellipse cx="50.5" cy="23" fill="#ADD1B2" rx="11" ry="11" style="stroke:#181818;stroke-width:1.0;"/><path d="M50.4375,18.8281 Q49.6875,18.8281 49.125,19.125 Q48.5625,19.4063 48.1719,19.9375 Q47.7813,20.4688 47.5781,21.25 Q47.3906,22.0156 47.3906,22.9688 Q47.3906,23.9375 47.5625,24.7031 Q47.75,25.4531 48.1094,25.9688 Q48.4844,26.4844 49.0625,26.7656 Q49.6406,27.0313 50.4375,27.0313 Q51.1719,27.0313 51.9063,26.8594 Q52.6563,26.6875 53.5313,26.3906 L53.5313,28.5469 Q53.125,28.7031 52.7344,28.8281 Q52.3438,28.9375 51.9375,29.0156 Q51.5313,29.0938 51.1094,29.125 Q50.6875,29.1719 50.1875,29.1719 Q48.7813,29.1719 47.75,28.7188 Q46.7344,28.2656 46.0625,27.4531 Q45.3906,26.6406 45.0625,25.5 Q44.7344,24.3438 44.7344,22.9531 Q44.7344,21.5781 45.1094,20.4219 Q45.4844,19.2656 46.2031,18.4375 Q46.9219,17.6094 47.9844,17.1563 Q49.0469,16.6875 50.4375,16.6875 Q51.3438,16.6875 52.25,16.9219 Q53.1563,17.1406 53.9844,17.5469 L53.1563,19.6406 Q52.4688,19.3125 51.7813,19.0781 Q51.0938,18.8281 50.4375,18.8281 Z " fill="#000000"/><text fill="#000000" font-family="sans-serif" font-size="14" lengthAdjust="spacing" textLength="101" x="64.5" y="27.8467">MonoBehaviour</text><line style="stroke:#181818;stroke-width:0.5;" x1="36.5" x2="167.5" y1="39" y2="39"/><line style="stroke:#181818;stroke-width:0.5;" x1="36.5" x2="167.5" y1="47" y2="47"/></g><!--reverse link MonoBehaviour to ControlEkoSkeleton--><g id="link_MonoBehaviour_ControlEkoSkeleton"><path codeLine="5" d="M102,75.14 C102,88 102,102.04 102,114.69 " fill="none" id="MonoBehaviour-backto-ControlEkoSkeleton" style="stroke:#181818;stroke-width:1.0;"/><polygon fill="none" points="95,75.04,102,55.04,109,75.04,95,75.04" style="stroke:#181818;stroke-width:1.0;"/></g><!--SRC=[Iyv9B2vMSCxFAodApt7DpW_EJir9BSdFKwZcKW02ROMG_FJqd5JNYlnYg8o6feALGbb-PWgA0hVyd9pySeHSBPTlVbw-Ksf6ObbcVccHWasDhYuMQm00]--></g></svg>