<?xml version="1.0" encoding="us-ascii" standalone="no"?><svg xmlns="http://www.w3.org/2000/svg" xmlns:xlink="http://www.w3.org/1999/xlink" contentStyleType="text/css" height="278px" preserveAspectRatio="none" style="width:192px;height:278px;background:#FFFFFF;" version="1.1" viewBox="0 0 192 278" width="192px" zoomAndPan="magnify"><defs/><g><!--class EnableThumbCollider--><g id="elem_EnableThumbCollider"><rect codeLine="1" fill="#F1F1F1" height="48" id="EnableThumbCollider" rx="2.5" ry="2.5" style="stroke:#181818;stroke-width:0.5;" width="168" x="17.3594" y="115"/><ellipse cx="32.3594" cy="131" fill="#ADD1B2" rx="11" ry="11" style="stroke:#181818;stroke-width:1.0;"/><path d="M32.2969,126.8281 Q31.5469,126.8281 30.9844,127.125 Q30.4219,127.4063 30.0313,127.9375 Q29.6406,128.4688 29.4375,129.25 Q29.25,130.0156 29.25,130.9688 Q29.25,131.9375 29.4219,132.7031 Q29.6094,133.4531 29.9688,133.9688 Q30.3438,134.4844 30.9219,134.7656 Q31.5,135.0313 32.2969,135.0313 Q33.0313,135.0313 33.7656,134.8594 Q34.5156,134.6875 35.3906,134.3906 L35.3906,136.5469 Q34.9844,136.7031 34.5938,136.8281 Q34.2031,136.9375 33.7969,137.0156 Q33.3906,137.0938 32.9688,137.125 Q32.5469,137.1719 32.0469,137.1719 Q30.6406,137.1719 29.6094,136.7188 Q28.5938,136.2656 27.9219,135.4531 Q27.25,134.6406 26.9219,133.5 Q26.5938,132.3438 26.5938,130.9531 Q26.5938,129.5781 26.9688,128.4219 Q27.3438,127.2656 28.0625,126.4375 Q28.7813,125.6094 29.8438,125.1563 Q30.9063,124.6875 32.2969,124.6875 Q33.2031,124.6875 34.1094,124.9219 Q35.0156,125.1406 35.8438,125.5469 L35.0156,127.6406 Q34.3281,127.3125 33.6406,127.0781 Q32.9531,126.8281 32.2969,126.8281 Z " fill="#000000"/><text fill="#000000" font-family="sans-serif" font-size="14" lengthAdjust="spacing" textLength="136" x="46.3594" y="135.8467">EnableThumbCollider</text><line style="stroke:#181818;stroke-width:0.5;" x1="18.3594" x2="184.3594" y1="147" y2="147"/><line style="stroke:#181818;stroke-width:0.5;" x1="18.3594" x2="184.3594" y1="155" y2="155"/></g><!--class MonoBehaviour--><g id="elem_MonoBehaviour"><rect fill="#F1F1F1" height="48" id="MonoBehaviour" rx="2.5" ry="2.5" style="stroke:#181818;stroke-width:0.5;" width="133" x="34.8594" y="7"/><ellipse cx="49.8594" cy="23" fill="#ADD1B2" rx="11" ry="11" style="stroke:#181818;stroke-width:1.0;"/><path d="M49.7969,18.8281 Q49.0469,18.8281 48.4844,19.125 Q47.9219,19.4063 47.5313,19.9375 Q47.1406,20.4688 46.9375,21.25 Q46.75,22.0156 46.75,22.9688 Q46.75,23.9375 46.9219,24.7031 Q47.1094,25.4531 47.4688,25.9688 Q47.8438,26.4844 48.4219,26.7656 Q49,27.0313 49.7969,27.0313 Q50.5313,27.0313 51.2656,26.8594 Q52.0156,26.6875 52.8906,26.3906 L52.8906,28.5469 Q52.4844,28.7031 52.0938,28.8281 Q51.7031,28.9375 51.2969,29.0156 Q50.8906,29.0938 50.4688,29.125 Q50.0469,29.1719 49.5469,29.1719 Q48.1406,29.1719 47.1094,28.7188 Q46.0938,28.2656 45.4219,27.4531 Q44.75,26.6406 44.4219,25.5 Q44.0938,24.3438 44.0938,22.9531 Q44.0938,21.5781 44.4688,20.4219 Q44.8438,19.2656 45.5625,18.4375 Q46.2813,17.6094 47.3438,17.1563 Q48.4063,16.6875 49.7969,16.6875 Q50.7031,16.6875 51.6094,16.9219 Q52.5156,17.1406 53.3438,17.5469 L52.5156,19.6406 Q51.8281,19.3125 51.1406,19.0781 Q50.4531,18.8281 49.7969,18.8281 Z " fill="#000000"/><text fill="#000000" font-family="sans-serif" font-size="14" lengthAdjust="spacing" textLength="101" x="63.8594" y="27.8467">MonoBehaviour</text><line style="stroke:#181818;stroke-width:0.5;" x1="35.8594" x2="166.8594" y1="39" y2="39"/><line style="stroke:#181818;stroke-width:0.5;" x1="35.8594" x2="166.8594" y1="47" y2="47"/></g><!--class Collider--><g id="elem_Collider"><rect fill="#F1F1F1" height="48" id="Collider" rx="2.5" ry="2.5" style="stroke:#181818;stroke-width:0.5;" width="82" x="60.3594" y="223"/><ellipse cx="75.3594" cy="239" fill="#ADD1B2" rx="11" ry="11" style="stroke:#181818;stroke-width:1.0;"/><path d="M75.2969,234.8281 Q74.5469,234.8281 73.9844,235.125 Q73.4219,235.4063 73.0313,235.9375 Q72.6406,236.4688 72.4375,237.25 Q72.25,238.0156 72.25,238.9688 Q72.25,239.9375 72.4219,240.7031 Q72.6094,241.4531 72.9688,241.9688 Q73.3438,242.4844 73.9219,242.7656 Q74.5,243.0313 75.2969,243.0313 Q76.0313,243.0313 76.7656,242.8594 Q77.5156,242.6875 78.3906,242.3906 L78.3906,244.5469 Q77.9844,244.7031 77.5938,244.8281 Q77.2031,244.9375 76.7969,245.0156 Q76.3906,245.0938 75.9688,245.125 Q75.5469,245.1719 75.0469,245.1719 Q73.6406,245.1719 72.6094,244.7188 Q71.5938,244.2656 70.9219,243.4531 Q70.25,242.6406 69.9219,241.5 Q69.5938,240.3438 69.5938,238.9531 Q69.5938,237.5781 69.9688,236.4219 Q70.3438,235.2656 71.0625,234.4375 Q71.7813,233.6094 72.8438,233.1563 Q73.9063,232.6875 75.2969,232.6875 Q76.2031,232.6875 77.1094,232.9219 Q78.0156,233.1406 78.8438,233.5469 L78.0156,235.6406 Q77.3281,235.3125 76.6406,235.0781 Q75.9531,234.8281 75.2969,234.8281 Z " fill="#000000"/><text fill="#000000" font-family="sans-serif" font-size="14" lengthAdjust="spacing" textLength="50" x="89.3594" y="243.8467">Collider</text><line style="stroke:#181818;stroke-width:0.5;" x1="61.3594" x2="141.3594" y1="255" y2="255"/><line style="stroke:#181818;stroke-width:0.5;" x1="61.3594" x2="141.3594" y1="263" y2="263"/></g><!--reverse link MonoBehaviour to EnableThumbCollider--><g id="link_MonoBehaviour_EnableThumbCollider"><path codeLine="3" d="M101.3594,75.02 C101.3594,88.58 101.3594,103.04 101.3594,114.68 " fill="none" id="MonoBehaviour-backto-EnableThumbCollider" style="stroke:#181818;stroke-width:1.0;"/><polygon fill="none" points="94.3594,75,101.3594,55,108.3594,75,94.3594,75" style="stroke:#181818;stroke-width:1.0;"/></g><!--link EnableThumbCollider to Collider--><g id="link_EnableThumbCollider_Collider"><path codeLine="4" d="M101.3594,163 C101.3594,179 101.3594,200.45 101.3594,217.53 " fill="none" id="EnableThumbCollider-to-Collider" style="stroke:#181818;stroke-width:1.0;"/><polygon fill="#181818" points="101.3594,222.68,105.3594,213.68,101.3594,217.68,97.3594,213.68,101.3594,222.68" style="stroke:#181818;stroke-width:1.0;"/><text fill="#000000" font-family="sans-serif" font-size="13" lengthAdjust="spacing" textLength="85" x="6" y="212.007">thumbCollider</text></g><!--SRC=[Iyv9B2vMSCrBJCf93SaepKropi_9oKn9BLAevghbyitFotTApKWioymlBLAmgT7LnQQK2vjsNLqx1QKIP24b1HWB0000]--></g></svg>