<?xml version="1.0" encoding="us-ascii" standalone="no"?><svg xmlns="http://www.w3.org/2000/svg" xmlns:xlink="http://www.w3.org/1999/xlink" contentStyleType="text/css" height="359px" preserveAspectRatio="none" style="width:297px;height:359px;background:#FFFFFF;" version="1.1" viewBox="0 0 297 359" width="297px" zoomAndPan="magnify"><defs/><g><!--class ToggleMenuFollow--><g id="elem_ToggleMenuFollow"><rect codeLine="1" fill="#F1F1F1" height="129.4844" id="ToggleMenuFollow" rx="2.5" ry="2.5" style="stroke:#181818;stroke-width:0.5;" width="201" x="7" y="115"/><ellipse cx="44.95" cy="131" fill="#ADD1B2" rx="11" ry="11" style="stroke:#181818;stroke-width:1.0;"/><path d="M44.8875,126.8281 Q44.1375,126.8281 43.575,127.125 Q43.0125,127.4063 42.6219,127.9375 Q42.2313,128.4688 42.0281,129.25 Q41.8406,130.0156 41.8406,130.9688 Q41.8406,131.9375 42.0125,132.7031 Q42.2,133.4531 42.5594,133.9688 Q42.9344,134.4844 43.5125,134.7656 Q44.0906,135.0313 44.8875,135.0313 Q45.6219,135.0313 46.3563,134.8594 Q47.1063,134.6875 47.9813,134.3906 L47.9813,136.5469 Q47.575,136.7031 47.1844,136.8281 Q46.7938,136.9375 46.3875,137.0156 Q45.9813,137.0938 45.5594,137.125 Q45.1375,137.1719 44.6375,137.1719 Q43.2313,137.1719 42.2,136.7188 Q41.1844,136.2656 40.5125,135.4531 Q39.8406,134.6406 39.5125,133.5 Q39.1844,132.3438 39.1844,130.9531 Q39.1844,129.5781 39.5594,128.4219 Q39.9344,127.2656 40.6531,126.4375 Q41.3719,125.6094 42.4344,125.1563 Q43.4969,124.6875 44.8875,124.6875 Q45.7938,124.6875 46.7,124.9219 Q47.6063,125.1406 48.4344,125.5469 L47.6063,127.6406 Q46.9188,127.3125 46.2313,127.0781 Q45.5438,126.8281 44.8875,126.8281 Z " fill="#000000"/><text fill="#000000" font-family="sans-serif" font-size="14" lengthAdjust="spacing" textLength="118" x="64.05" y="135.8467">ToggleMenuFollow</text><line style="stroke:#181818;stroke-width:0.5;" x1="8" x2="207" y1="147" y2="147"/><ellipse cx="18" cy="160.6484" fill="none" rx="3" ry="3" style="stroke:#038048;stroke-width:1.0;"/><text fill="#000000" font-family="sans-serif" font-size="14" lengthAdjust="spacing" textLength="175" x="27" y="163.9951">followDistance : float = 1.5f</text><ellipse cx="18" cy="176.9453" fill="none" rx="3" ry="3" style="stroke:#038048;stroke-width:1.0;"/><text fill="#000000" font-family="sans-serif" font-size="14" lengthAdjust="spacing" textLength="127" x="27" y="180.292">verticalOffset : float</text><ellipse cx="18" cy="193.2422" fill="none" rx="3" ry="3" style="stroke:#038048;stroke-width:1.0;"/><text fill="#000000" font-family="sans-serif" font-size="14" lengthAdjust="spacing" textLength="173" x="27" y="196.5889">horizontalOffset : float = 0f</text><line style="stroke:#181818;stroke-width:0.5;" x1="8" x2="207" y1="203.8906" y2="203.8906"/><ellipse cx="18" cy="217.5391" fill="#84BE84" rx="3" ry="3" style="stroke:#038048;stroke-width:1.0;"/><text fill="#000000" font-family="sans-serif" font-size="14" lengthAdjust="spacing" textLength="129" x="27" y="220.8857">ToggleFollow() : void</text><ellipse cx="18" cy="233.8359" fill="#84BE84" rx="3" ry="3" style="stroke:#038048;stroke-width:1.0;"/><text fill="#000000" font-family="sans-serif" font-size="14" lengthAdjust="spacing" textLength="138" x="27" y="237.1826">ToggleEnabled() : void</text></g><!--class MonoBehaviour--><g id="elem_MonoBehaviour"><rect fill="#F1F1F1" height="48" id="MonoBehaviour" rx="2.5" ry="2.5" style="stroke:#181818;stroke-width:0.5;" width="133" x="41" y="7"/><ellipse cx="56" cy="23" fill="#ADD1B2" rx="11" ry="11" style="stroke:#181818;stroke-width:1.0;"/><path d="M55.9375,18.8281 Q55.1875,18.8281 54.625,19.125 Q54.0625,19.4063 53.6719,19.9375 Q53.2813,20.4688 53.0781,21.25 Q52.8906,22.0156 52.8906,22.9688 Q52.8906,23.9375 53.0625,24.7031 Q53.25,25.4531 53.6094,25.9688 Q53.9844,26.4844 54.5625,26.7656 Q55.1406,27.0313 55.9375,27.0313 Q56.6719,27.0313 57.4063,26.8594 Q58.1563,26.6875 59.0313,26.3906 L59.0313,28.5469 Q58.625,28.7031 58.2344,28.8281 Q57.8438,28.9375 57.4375,29.0156 Q57.0313,29.0938 56.6094,29.125 Q56.1875,29.1719 55.6875,29.1719 Q54.2813,29.1719 53.25,28.7188 Q52.2344,28.2656 51.5625,27.4531 Q50.8906,26.6406 50.5625,25.5 Q50.2344,24.3438 50.2344,22.9531 Q50.2344,21.5781 50.6094,20.4219 Q50.9844,19.2656 51.7031,18.4375 Q52.4219,17.6094 53.4844,17.1563 Q54.5469,16.6875 55.9375,16.6875 Q56.8438,16.6875 57.75,16.9219 Q58.6563,17.1406 59.4844,17.5469 L58.6563,19.6406 Q57.9688,19.3125 57.2813,19.0781 Q56.5938,18.8281 55.9375,18.8281 Z " fill="#000000"/><text fill="#000000" font-family="sans-serif" font-size="14" lengthAdjust="spacing" textLength="101" x="70" y="27.8467">MonoBehaviour</text><line style="stroke:#181818;stroke-width:0.5;" x1="42" x2="173" y1="39" y2="39"/><line style="stroke:#181818;stroke-width:0.5;" x1="42" x2="173" y1="47" y2="47"/></g><!--class GameObject--><g id="elem_GameObject"><rect fill="#F1F1F1" height="48" id="GameObject" rx="2.5" ry="2.5" style="stroke:#181818;stroke-width:0.5;" width="111" x="52" y="304"/><ellipse cx="67" cy="320" fill="#ADD1B2" rx="11" ry="11" style="stroke:#181818;stroke-width:1.0;"/><path d="M66.9375,315.8281 Q66.1875,315.8281 65.625,316.125 Q65.0625,316.4063 64.6719,316.9375 Q64.2813,317.4688 64.0781,318.25 Q63.8906,319.0156 63.8906,319.9688 Q63.8906,320.9375 64.0625,321.7031 Q64.25,322.4531 64.6094,322.9688 Q64.9844,323.4844 65.5625,323.7656 Q66.1406,324.0313 66.9375,324.0313 Q67.6719,324.0313 68.4063,323.8594 Q69.1563,323.6875 70.0313,323.3906 L70.0313,325.5469 Q69.625,325.7031 69.2344,325.8281 Q68.8438,325.9375 68.4375,326.0156 Q68.0313,326.0938 67.6094,326.125 Q67.1875,326.1719 66.6875,326.1719 Q65.2813,326.1719 64.25,325.7188 Q63.2344,325.2656 62.5625,324.4531 Q61.8906,323.6406 61.5625,322.5 Q61.2344,321.3438 61.2344,319.9531 Q61.2344,318.5781 61.6094,317.4219 Q61.9844,316.2656 62.7031,315.4375 Q63.4219,314.6094 64.4844,314.1563 Q65.5469,313.6875 66.9375,313.6875 Q67.8438,313.6875 68.75,313.9219 Q69.6563,314.1406 70.4844,314.5469 L69.6563,316.6406 Q68.9688,316.3125 68.2813,316.0781 Q67.5938,315.8281 66.9375,315.8281 Z " fill="#000000"/><text fill="#000000" font-family="sans-serif" font-size="14" lengthAdjust="spacing" textLength="79" x="81" y="324.8467">GameObject</text><line style="stroke:#181818;stroke-width:0.5;" x1="53" x2="162" y1="336" y2="336"/><line style="stroke:#181818;stroke-width:0.5;" x1="53" x2="162" y1="344" y2="344"/></g><!--class TMP_Text--><g id="elem_TMP_Text"><rect fill="#F1F1F1" height="48" id="TMP_Text" rx="2.5" ry="2.5" style="stroke:#181818;stroke-width:0.5;" width="92" x="198.5" y="304"/><ellipse cx="213.5" cy="320" fill="#ADD1B2" rx="11" ry="11" style="stroke:#181818;stroke-width:1.0;"/><path d="M213.4375,315.8281 Q212.6875,315.8281 212.125,316.125 Q211.5625,316.4063 211.1719,316.9375 Q210.7813,317.4688 210.5781,318.25 Q210.3906,319.0156 210.3906,319.9688 Q210.3906,320.9375 210.5625,321.7031 Q210.75,322.4531 211.1094,322.9688 Q211.4844,323.4844 212.0625,323.7656 Q212.6406,324.0313 213.4375,324.0313 Q214.1719,324.0313 214.9063,323.8594 Q215.6563,323.6875 216.5313,323.3906 L216.5313,325.5469 Q216.125,325.7031 215.7344,325.8281 Q215.3438,325.9375 214.9375,326.0156 Q214.5313,326.0938 214.1094,326.125 Q213.6875,326.1719 213.1875,326.1719 Q211.7813,326.1719 210.75,325.7188 Q209.7344,325.2656 209.0625,324.4531 Q208.3906,323.6406 208.0625,322.5 Q207.7344,321.3438 207.7344,319.9531 Q207.7344,318.5781 208.1094,317.4219 Q208.4844,316.2656 209.2031,315.4375 Q209.9219,314.6094 210.9844,314.1563 Q212.0469,313.6875 213.4375,313.6875 Q214.3438,313.6875 215.25,313.9219 Q216.1563,314.1406 216.9844,314.5469 L216.1563,316.6406 Q215.4688,316.3125 214.7813,316.0781 Q214.0938,315.8281 213.4375,315.8281 Z " fill="#000000"/><text fill="#000000" font-family="sans-serif" font-size="14" lengthAdjust="spacing" textLength="60" x="227.5" y="324.8467">TMP_Text</text><line style="stroke:#181818;stroke-width:0.5;" x1="199.5" x2="289.5" y1="336" y2="336"/><line style="stroke:#181818;stroke-width:0.5;" x1="199.5" x2="289.5" y1="344" y2="344"/></g><!--reverse link MonoBehaviour to ToggleMenuFollow--><g id="link_MonoBehaviour_ToggleMenuFollow"><path codeLine="8" d="M107.5,75.6 C107.5,87.95 107.5,101.66 107.5,114.93 " fill="none" id="MonoBehaviour-backto-ToggleMenuFollow" style="stroke:#181818;stroke-width:1.0;"/><polygon fill="none" points="100.5,75.21,107.5,55.21,114.5,75.21,100.5,75.21" style="stroke:#181818;stroke-width:1.0;"/></g><!--link ToggleMenuFollow to GameObject--><g id="link_ToggleMenuFollow_GameObject"><path codeLine="9" d="M94.84,244.33 C94.46,263.31 95.24,283.15 97.18,298.64 " fill="none" id="ToggleMenuFollow-to-GameObject" style="stroke:#181818;stroke-width:1.0;"/><polygon fill="#181818" points="97.88,303.71,100.6091,294.2468,97.1949,298.7572,92.6845,295.343,97.88,303.71" style="stroke:#181818;stroke-width:1.0;"/><text fill="#000000" font-family="sans-serif" font-size="13" lengthAdjust="spacing" textLength="35" x="56.2695" y="293.0443">menu</text></g><!--link ToggleMenuFollow to GameObject--><g id="link_ToggleMenuFollow_GameObject"><path codeLine="10" d="M120.9,244.33 C121.3,263.31 120.48,283.15 118.43,298.64 " fill="none" id="ToggleMenuFollow-to-GameObject-1" style="stroke:#181818;stroke-width:1.0;"/><polygon fill="#181818" points="117.69,303.71,122.9597,295.3895,118.4191,298.7634,115.0452,294.2229,117.69,303.71" style="stroke:#181818;stroke-width:1.0;"/><text fill="#000000" font-family="sans-serif" font-size="13" lengthAdjust="spacing" textLength="72" x="128.8245" y="292.9826">exoSkeleton</text></g><!--link ToggleMenuFollow to TMP_Text--><g id="link_ToggleMenuFollow_TMP_Text"><path codeLine="11" d="M167.19,244.33 C185.41,263.81 204.46,284.19 219.1,299.84 " fill="none" id="ToggleMenuFollow-to-TMP_Text" style="stroke:#181818;stroke-width:1.0;"/><polygon fill="#181818" points="222.72,303.71,219.5021,294.4017,219.3079,300.0552,213.6544,299.861,222.72,303.71" style="stroke:#181818;stroke-width:1.0;"/><text fill="#000000" font-family="sans-serif" font-size="13" lengthAdjust="spacing" textLength="49" x="223.383" y="293.0443">tmpText</text></g><!--SRC=[ZOyx2y9048Jx_8ebbI8HBMn4BSH75HHCBsVSqzFBhUGsKNpyTq-J82g2M-qm7pDCh8Mr4D5cep54aqr8Qph2nGDt3P1FELAMXOaHkY0r2OO-j9iTMJ8vfgnYeMTIMkIAASqjfUfCXZzj5z6g0ehsehbMTqHEQltcZOrOQLo_p9iNag4XRaMkA4kXTms2hnNUrwmW682VEEt3L2GuM-qmvXyOdcYnHurCvW-QaqE49_OX2kVBntS7]--></g></svg>