<?xml version="1.0" encoding="us-ascii" standalone="no"?><svg xmlns="http://www.w3.org/2000/svg" xmlns:xlink="http://www.w3.org/1999/xlink" contentStyleType="text/css" height="392px" preserveAspectRatio="none" style="width:1726px;height:392px;background:#FFFFFF;" version="1.1" viewBox="0 0 1726 392" width="1726px" zoomAndPan="magnify"><defs/><g><!--class ToggleMenuFollow--><g id="elem_ToggleMenuFollow"><rect codeLine="1" fill="#F1F1F1" height="129.4844" id="ToggleMenuFollow" rx="2.5" ry="2.5" style="stroke:#181818;stroke-width:0.5;" width="201" x="7" y="131.5"/><ellipse cx="44.95" cy="147.5" fill="#ADD1B2" rx="11" ry="11" style="stroke:#181818;stroke-width:1.0;"/><path d="M44.8875,143.3281 Q44.1375,143.3281 43.575,143.625 Q43.0125,143.9063 42.6219,144.4375 Q42.2313,144.9688 42.0281,145.75 Q41.8406,146.5156 41.8406,147.4688 Q41.8406,148.4375 42.0125,149.2031 Q42.2,149.9531 42.5594,150.4688 Q42.9344,150.9844 43.5125,151.2656 Q44.0906,151.5313 44.8875,151.5313 Q45.6219,151.5313 46.3563,151.3594 Q47.1063,151.1875 47.9813,150.8906 L47.9813,153.0469 Q47.575,153.2031 47.1844,153.3281 Q46.7938,153.4375 46.3875,153.5156 Q45.9813,153.5938 45.5594,153.625 Q45.1375,153.6719 44.6375,153.6719 Q43.2313,153.6719 42.2,153.2188 Q41.1844,152.7656 40.5125,151.9531 Q39.8406,151.1406 39.5125,150 Q39.1844,148.8438 39.1844,147.4531 Q39.1844,146.0781 39.5594,144.9219 Q39.9344,143.7656 40.6531,142.9375 Q41.3719,142.1094 42.4344,141.6563 Q43.4969,141.1875 44.8875,141.1875 Q45.7938,141.1875 46.7,141.4219 Q47.6063,141.6406 48.4344,142.0469 L47.6063,144.1406 Q46.9188,143.8125 46.2313,143.5781 Q45.5438,143.3281 44.8875,143.3281 Z " fill="#000000"/><text fill="#000000" font-family="sans-serif" font-size="14" lengthAdjust="spacing" textLength="118" x="64.05" y="152.3467">ToggleMenuFollow</text><line style="stroke:#181818;stroke-width:0.5;" x1="8" x2="207" y1="163.5" y2="163.5"/><ellipse cx="18" cy="177.1484" fill="none" rx="3" ry="3" style="stroke:#038048;stroke-width:1.0;"/><text fill="#000000" font-family="sans-serif" font-size="14" lengthAdjust="spacing" textLength="175" x="27" y="180.4951">followDistance : float = 1.5f</text><ellipse cx="18" cy="193.4453" fill="none" rx="3" ry="3" style="stroke:#038048;stroke-width:1.0;"/><text fill="#000000" font-family="sans-serif" font-size="14" lengthAdjust="spacing" textLength="127" x="27" y="196.792">verticalOffset : float</text><ellipse cx="18" cy="209.7422" fill="none" rx="3" ry="3" style="stroke:#038048;stroke-width:1.0;"/><text fill="#000000" font-family="sans-serif" font-size="14" lengthAdjust="spacing" textLength="173" x="27" y="213.0889">horizontalOffset : float = 0f</text><line style="stroke:#181818;stroke-width:0.5;" x1="8" x2="207" y1="220.3906" y2="220.3906"/><ellipse cx="18" cy="234.0391" fill="#84BE84" rx="3" ry="3" style="stroke:#038048;stroke-width:1.0;"/><text fill="#000000" font-family="sans-serif" font-size="14" lengthAdjust="spacing" textLength="129" x="27" y="237.3857">ToggleFollow() : void</text><ellipse cx="18" cy="250.3359" fill="#84BE84" rx="3" ry="3" style="stroke:#038048;stroke-width:1.0;"/><text fill="#000000" font-family="sans-serif" font-size="14" lengthAdjust="spacing" textLength="138" x="27" y="253.6826">ToggleEnabled() : void</text></g><!--class MonoBehaviour--><g id="elem_MonoBehaviour"><rect fill="#F1F1F1" height="48" id="MonoBehaviour" rx="2.5" ry="2.5" style="stroke:#181818;stroke-width:0.5;" width="133" x="832" y="7"/><ellipse cx="847" cy="23" fill="#ADD1B2" rx="11" ry="11" style="stroke:#181818;stroke-width:1.0;"/><path d="M846.9375,18.8281 Q846.1875,18.8281 845.625,19.125 Q845.0625,19.4063 844.6719,19.9375 Q844.2813,20.4688 844.0781,21.25 Q843.8906,22.0156 843.8906,22.9688 Q843.8906,23.9375 844.0625,24.7031 Q844.25,25.4531 844.6094,25.9688 Q844.9844,26.4844 845.5625,26.7656 Q846.1406,27.0313 846.9375,27.0313 Q847.6719,27.0313 848.4063,26.8594 Q849.1563,26.6875 850.0313,26.3906 L850.0313,28.5469 Q849.625,28.7031 849.2344,28.8281 Q848.8438,28.9375 848.4375,29.0156 Q848.0313,29.0938 847.6094,29.125 Q847.1875,29.1719 846.6875,29.1719 Q845.2813,29.1719 844.25,28.7188 Q843.2344,28.2656 842.5625,27.4531 Q841.8906,26.6406 841.5625,25.5 Q841.2344,24.3438 841.2344,22.9531 Q841.2344,21.5781 841.6094,20.4219 Q841.9844,19.2656 842.7031,18.4375 Q843.4219,17.6094 844.4844,17.1563 Q845.5469,16.6875 846.9375,16.6875 Q847.8438,16.6875 848.75,16.9219 Q849.6563,17.1406 850.4844,17.5469 L849.6563,19.6406 Q848.9688,19.3125 848.2813,19.0781 Q847.5938,18.8281 846.9375,18.8281 Z " fill="#000000"/><text fill="#000000" font-family="sans-serif" font-size="14" lengthAdjust="spacing" textLength="101" x="861" y="27.8467">MonoBehaviour</text><line style="stroke:#181818;stroke-width:0.5;" x1="833" x2="964" y1="39" y2="39"/><line style="stroke:#181818;stroke-width:0.5;" x1="833" x2="964" y1="47" y2="47"/></g><!--class GameObject--><g id="elem_GameObject"><rect fill="#F1F1F1" height="48" id="GameObject" rx="2.5" ry="2.5" style="stroke:#181818;stroke-width:0.5;" width="111" x="52" y="337"/><ellipse cx="67" cy="353" fill="#ADD1B2" rx="11" ry="11" style="stroke:#181818;stroke-width:1.0;"/><path d="M66.9375,348.8281 Q66.1875,348.8281 65.625,349.125 Q65.0625,349.4063 64.6719,349.9375 Q64.2813,350.4688 64.0781,351.25 Q63.8906,352.0156 63.8906,352.9688 Q63.8906,353.9375 64.0625,354.7031 Q64.25,355.4531 64.6094,355.9688 Q64.9844,356.4844 65.5625,356.7656 Q66.1406,357.0313 66.9375,357.0313 Q67.6719,357.0313 68.4063,356.8594 Q69.1563,356.6875 70.0313,356.3906 L70.0313,358.5469 Q69.625,358.7031 69.2344,358.8281 Q68.8438,358.9375 68.4375,359.0156 Q68.0313,359.0938 67.6094,359.125 Q67.1875,359.1719 66.6875,359.1719 Q65.2813,359.1719 64.25,358.7188 Q63.2344,358.2656 62.5625,357.4531 Q61.8906,356.6406 61.5625,355.5 Q61.2344,354.3438 61.2344,352.9531 Q61.2344,351.5781 61.6094,350.4219 Q61.9844,349.2656 62.7031,348.4375 Q63.4219,347.6094 64.4844,347.1563 Q65.5469,346.6875 66.9375,346.6875 Q67.8438,346.6875 68.75,346.9219 Q69.6563,347.1406 70.4844,347.5469 L69.6563,349.6406 Q68.9688,349.3125 68.2813,349.0781 Q67.5938,348.8281 66.9375,348.8281 Z " fill="#000000"/><text fill="#000000" font-family="sans-serif" font-size="14" lengthAdjust="spacing" textLength="79" x="81" y="357.8467">GameObject</text><line style="stroke:#181818;stroke-width:0.5;" x1="53" x2="162" y1="369" y2="369"/><line style="stroke:#181818;stroke-width:0.5;" x1="53" x2="162" y1="377" y2="377"/></g><!--class TMP_Text--><g id="elem_TMP_Text"><rect fill="#F1F1F1" height="48" id="TMP_Text" rx="2.5" ry="2.5" style="stroke:#181818;stroke-width:0.5;" width="92" x="277.5" y="337"/><ellipse cx="292.5" cy="353" fill="#ADD1B2" rx="11" ry="11" style="stroke:#181818;stroke-width:1.0;"/><path d="M292.4375,348.8281 Q291.6875,348.8281 291.125,349.125 Q290.5625,349.4063 290.1719,349.9375 Q289.7813,350.4688 289.5781,351.25 Q289.3906,352.0156 289.3906,352.9688 Q289.3906,353.9375 289.5625,354.7031 Q289.75,355.4531 290.1094,355.9688 Q290.4844,356.4844 291.0625,356.7656 Q291.6406,357.0313 292.4375,357.0313 Q293.1719,357.0313 293.9063,356.8594 Q294.6563,356.6875 295.5313,356.3906 L295.5313,358.5469 Q295.125,358.7031 294.7344,358.8281 Q294.3438,358.9375 293.9375,359.0156 Q293.5313,359.0938 293.1094,359.125 Q292.6875,359.1719 292.1875,359.1719 Q290.7813,359.1719 289.75,358.7188 Q288.7344,358.2656 288.0625,357.4531 Q287.3906,356.6406 287.0625,355.5 Q286.7344,354.3438 286.7344,352.9531 Q286.7344,351.5781 287.1094,350.4219 Q287.4844,349.2656 288.2031,348.4375 Q288.9219,347.6094 289.9844,347.1563 Q291.0469,346.6875 292.4375,346.6875 Q293.3438,346.6875 294.25,346.9219 Q295.1563,347.1406 295.9844,347.5469 L295.1563,349.6406 Q294.4688,349.3125 293.7813,349.0781 Q293.0938,348.8281 292.4375,348.8281 Z " fill="#000000"/><text fill="#000000" font-family="sans-serif" font-size="14" lengthAdjust="spacing" textLength="60" x="306.5" y="357.8467">TMP_Text</text><line style="stroke:#181818;stroke-width:0.5;" x1="278.5" x2="368.5" y1="369" y2="369"/><line style="stroke:#181818;stroke-width:0.5;" x1="278.5" x2="368.5" y1="377" y2="377"/></g><!--class ArduinoConnector--><g id="elem_ArduinoConnector"><rect codeLine="12" fill="#F1F1F1" height="113.1875" id="ArduinoConnector" rx="2.5" ry="2.5" style="stroke:#181818;stroke-width:0.5;" width="319" x="243" y="139.5"/><ellipse cx="340.25" cy="155.5" fill="#ADD1B2" rx="11" ry="11" style="stroke:#181818;stroke-width:1.0;"/><path d="M340.1875,151.3281 Q339.4375,151.3281 338.875,151.625 Q338.3125,151.9063 337.9219,152.4375 Q337.5313,152.9688 337.3281,153.75 Q337.1406,154.5156 337.1406,155.4688 Q337.1406,156.4375 337.3125,157.2031 Q337.5,157.9531 337.8594,158.4688 Q338.2344,158.9844 338.8125,159.2656 Q339.3906,159.5313 340.1875,159.5313 Q340.9219,159.5313 341.6563,159.3594 Q342.4063,159.1875 343.2813,158.8906 L343.2813,161.0469 Q342.875,161.2031 342.4844,161.3281 Q342.0938,161.4375 341.6875,161.5156 Q341.2813,161.5938 340.8594,161.625 Q340.4375,161.6719 339.9375,161.6719 Q338.5313,161.6719 337.5,161.2188 Q336.4844,160.7656 335.8125,159.9531 Q335.1406,159.1406 334.8125,158 Q334.4844,156.8438 334.4844,155.4531 Q334.4844,154.0781 334.8594,152.9219 Q335.2344,151.7656 335.9531,150.9375 Q336.6719,150.1094 337.7344,149.6563 Q338.7969,149.1875 340.1875,149.1875 Q341.0938,149.1875 342,149.4219 Q342.9063,149.6406 343.7344,150.0469 L342.9063,152.1406 Q342.2188,151.8125 341.5313,151.5781 Q340.8438,151.3281 340.1875,151.3281 Z " fill="#000000"/><text fill="#000000" font-family="sans-serif" font-size="14" lengthAdjust="spacing" textLength="116" x="360.75" y="160.3467">ArduinoConnector</text><line style="stroke:#181818;stroke-width:0.5;" x1="244" x2="561" y1="171.5" y2="171.5"/><ellipse cx="254" cy="185.1484" fill="none" rx="3" ry="3" style="stroke:#038048;stroke-width:1.0;"/><text fill="#000000" font-family="sans-serif" font-size="14" lengthAdjust="spacing" textLength="230" x="263" y="188.4951">arduinoIP : string = "192.168.43.50"</text><ellipse cx="254" cy="201.4453" fill="none" rx="3" ry="3" style="stroke:#038048;stroke-width:1.0;"/><text fill="#000000" font-family="sans-serif" font-size="14" lengthAdjust="spacing" textLength="161" x="263" y="204.792">arduinoPort : int = 12345</text><line style="stroke:#181818;stroke-width:0.5;" x1="244" x2="561" y1="212.0938" y2="212.0938"/><ellipse cx="254" cy="225.7422" fill="#84BE84" rx="3" ry="3" style="stroke:#038048;stroke-width:1.0;"/><text fill="#000000" font-family="sans-serif" font-size="14" lengthAdjust="spacing" textLength="164" x="263" y="229.0889">ConnectToArduino() : void</text><ellipse cx="254" cy="242.0391" fill="#84BE84" rx="3" ry="3" style="stroke:#038048;stroke-width:1.0;"/><text fill="#000000" font-family="sans-serif" font-size="14" lengthAdjust="spacing" textLength="293" x="263" y="245.3857">SendMessageToArduino(message:string) : void</text></g><!--class ControlEkoSkeleton--><g id="elem_ControlEkoSkeleton"><rect codeLine="20" fill="#F1F1F1" height="80.5938" id="ControlEkoSkeleton" rx="2.5" ry="2.5" style="stroke:#181818;stroke-width:0.5;" width="190" x="597.5" y="155.5"/><ellipse cx="627.8" cy="171.5" fill="#ADD1B2" rx="11" ry="11" style="stroke:#181818;stroke-width:1.0;"/><path d="M627.7375,167.3281 Q626.9875,167.3281 626.425,167.625 Q625.8625,167.9063 625.4719,168.4375 Q625.0813,168.9688 624.8781,169.75 Q624.6906,170.5156 624.6906,171.4688 Q624.6906,172.4375 624.8625,173.2031 Q625.05,173.9531 625.4094,174.4688 Q625.7844,174.9844 626.3625,175.2656 Q626.9406,175.5313 627.7375,175.5313 Q628.4719,175.5313 629.2063,175.3594 Q629.9563,175.1875 630.8313,174.8906 L630.8313,177.0469 Q630.425,177.2031 630.0344,177.3281 Q629.6438,177.4375 629.2375,177.5156 Q628.8313,177.5938 628.4094,177.625 Q627.9875,177.6719 627.4875,177.6719 Q626.0813,177.6719 625.05,177.2188 Q624.0344,176.7656 623.3625,175.9531 Q622.6906,175.1406 622.3625,174 Q622.0344,172.8438 622.0344,171.4531 Q622.0344,170.0781 622.4094,168.9219 Q622.7844,167.7656 623.5031,166.9375 Q624.2219,166.1094 625.2844,165.6563 Q626.3469,165.1875 627.7375,165.1875 Q628.6438,165.1875 629.55,165.4219 Q630.4563,165.6406 631.2844,166.0469 L630.4563,168.1406 Q629.7688,167.8125 629.0813,167.5781 Q628.3938,167.3281 627.7375,167.3281 Z " fill="#000000"/><text fill="#000000" font-family="sans-serif" font-size="14" lengthAdjust="spacing" textLength="124" x="645.2" y="176.3467">ControlEkoSkeleton</text><line style="stroke:#181818;stroke-width:0.5;" x1="598.5" x2="786.5" y1="187.5" y2="187.5"/><line style="stroke:#181818;stroke-width:0.5;" x1="598.5" x2="786.5" y1="195.5" y2="195.5"/><ellipse cx="608.5" cy="209.1484" fill="#84BE84" rx="3" ry="3" style="stroke:#038048;stroke-width:1.0;"/><text fill="#000000" font-family="sans-serif" font-size="14" lengthAdjust="spacing" textLength="164" x="617.5" y="212.4951">ToggleExoskeleton() : void</text><ellipse cx="608.5" cy="225.4453" fill="#84BE84" rx="3" ry="3" style="stroke:#038048;stroke-width:1.0;"/><text fill="#000000" font-family="sans-serif" font-size="14" lengthAdjust="spacing" textLength="129" x="617.5" y="228.792">ToggleFollow() : void</text></g><!--class SliderAngleDisplay--><g id="elem_SliderAngleDisplay"><rect codeLine="25" fill="#F1F1F1" height="48" id="SliderAngleDisplay" rx="2.5" ry="2.5" style="stroke:#181818;stroke-width:0.5;" width="151" x="823" y="172"/><ellipse cx="838" cy="188" fill="#ADD1B2" rx="11" ry="11" style="stroke:#181818;stroke-width:1.0;"/><path d="M837.9375,183.8281 Q837.1875,183.8281 836.625,184.125 Q836.0625,184.4063 835.6719,184.9375 Q835.2813,185.4688 835.0781,186.25 Q834.8906,187.0156 834.8906,187.9688 Q834.8906,188.9375 835.0625,189.7031 Q835.25,190.4531 835.6094,190.9688 Q835.9844,191.4844 836.5625,191.7656 Q837.1406,192.0313 837.9375,192.0313 Q838.6719,192.0313 839.4063,191.8594 Q840.1563,191.6875 841.0313,191.3906 L841.0313,193.5469 Q840.625,193.7031 840.2344,193.8281 Q839.8438,193.9375 839.4375,194.0156 Q839.0313,194.0938 838.6094,194.125 Q838.1875,194.1719 837.6875,194.1719 Q836.2813,194.1719 835.25,193.7188 Q834.2344,193.2656 833.5625,192.4531 Q832.8906,191.6406 832.5625,190.5 Q832.2344,189.3438 832.2344,187.9531 Q832.2344,186.5781 832.6094,185.4219 Q832.9844,184.2656 833.7031,183.4375 Q834.4219,182.6094 835.4844,182.1563 Q836.5469,181.6875 837.9375,181.6875 Q838.8438,181.6875 839.75,181.9219 Q840.6563,182.1406 841.4844,182.5469 L840.6563,184.6406 Q839.9688,184.3125 839.2813,184.0781 Q838.5938,183.8281 837.9375,183.8281 Z " fill="#000000"/><text fill="#000000" font-family="sans-serif" font-size="14" lengthAdjust="spacing" textLength="119" x="852" y="192.8467">SliderAngleDisplay</text><line style="stroke:#181818;stroke-width:0.5;" x1="824" x2="973" y1="204" y2="204"/><line style="stroke:#181818;stroke-width:0.5;" x1="824" x2="973" y1="212" y2="212"/></g><!--class ExoGrabApple--><g id="elem_ExoGrabApple"><rect codeLine="28" fill="#F1F1F1" height="162.0781" id="ExoGrabApple" rx="2.5" ry="2.5" style="stroke:#181818;stroke-width:0.5;" width="236" x="1009.5" y="115"/><ellipse cx="1078.25" cy="131" fill="#ADD1B2" rx="11" ry="11" style="stroke:#181818;stroke-width:1.0;"/><path d="M1078.1875,126.8281 Q1077.4375,126.8281 1076.875,127.125 Q1076.3125,127.4063 1075.9219,127.9375 Q1075.5313,128.4688 1075.3281,129.25 Q1075.1406,130.0156 1075.1406,130.9688 Q1075.1406,131.9375 1075.3125,132.7031 Q1075.5,133.4531 1075.8594,133.9688 Q1076.2344,134.4844 1076.8125,134.7656 Q1077.3906,135.0313 1078.1875,135.0313 Q1078.9219,135.0313 1079.6563,134.8594 Q1080.4063,134.6875 1081.2813,134.3906 L1081.2813,136.5469 Q1080.875,136.7031 1080.4844,136.8281 Q1080.0938,136.9375 1079.6875,137.0156 Q1079.2813,137.0938 1078.8594,137.125 Q1078.4375,137.1719 1077.9375,137.1719 Q1076.5313,137.1719 1075.5,136.7188 Q1074.4844,136.2656 1073.8125,135.4531 Q1073.1406,134.6406 1072.8125,133.5 Q1072.4844,132.3438 1072.4844,130.9531 Q1072.4844,129.5781 1072.8594,128.4219 Q1073.2344,127.2656 1073.9531,126.4375 Q1074.6719,125.6094 1075.7344,125.1563 Q1076.7969,124.6875 1078.1875,124.6875 Q1079.0938,124.6875 1080,124.9219 Q1080.9063,125.1406 1081.7344,125.5469 L1080.9063,127.6406 Q1080.2188,127.3125 1079.5313,127.0781 Q1078.8438,126.8281 1078.1875,126.8281 Z " fill="#000000"/><text fill="#000000" font-family="sans-serif" font-size="14" lengthAdjust="spacing" textLength="90" x="1098.75" y="135.8467">ExoGrabApple</text><line style="stroke:#181818;stroke-width:0.5;" x1="1010.5" x2="1244.5" y1="147" y2="147"/><ellipse cx="1020.5" cy="160.6484" fill="none" rx="3" ry="3" style="stroke:#038048;stroke-width:1.0;"/><text fill="#000000" font-family="sans-serif" font-size="14" lengthAdjust="spacing" textLength="191" x="1029.5" y="163.9951">joint2TargetAngle : float = 30f</text><ellipse cx="1020.5" cy="176.9453" fill="none" rx="3" ry="3" style="stroke:#038048;stroke-width:1.0;"/><text fill="#000000" font-family="sans-serif" font-size="14" lengthAdjust="spacing" textLength="191" x="1029.5" y="180.292">joint3TargetAngle : float = 45f</text><ellipse cx="1020.5" cy="193.2422" fill="none" rx="3" ry="3" style="stroke:#038048;stroke-width:1.0;"/><text fill="#000000" font-family="sans-serif" font-size="14" lengthAdjust="spacing" textLength="191" x="1029.5" y="196.5889">joint4TargetAngle : float = 60f</text><ellipse cx="1020.5" cy="209.5391" fill="none" rx="3" ry="3" style="stroke:#038048;stroke-width:1.0;"/><text fill="#000000" font-family="sans-serif" font-size="14" lengthAdjust="spacing" textLength="191" x="1029.5" y="212.8857">joint5TargetAngle : float = 20f</text><ellipse cx="1020.5" cy="225.8359" fill="none" rx="3" ry="3" style="stroke:#038048;stroke-width:1.0;"/><text fill="#000000" font-family="sans-serif" font-size="14" lengthAdjust="spacing" textLength="202" x="1029.5" y="229.1826">jointMoveDuration : float = 1.0f</text><ellipse cx="1020.5" cy="242.1328" fill="none" rx="3" ry="3" style="stroke:#038048;stroke-width:1.0;"/><text fill="#000000" font-family="sans-serif" font-size="14" lengthAdjust="spacing" textLength="210" x="1029.5" y="245.4795">pauseBetweenJoints : float = 0.3f</text><line style="stroke:#181818;stroke-width:0.5;" x1="1010.5" x2="1244.5" y1="252.7813" y2="252.7813"/><ellipse cx="1020.5" cy="266.4297" fill="#84BE84" rx="3" ry="3" style="stroke:#038048;stroke-width:1.0;"/><text fill="#000000" font-family="sans-serif" font-size="14" lengthAdjust="spacing" textLength="184" x="1029.5" y="269.7764">TriggerGrabSequence() : void</text></g><!--class EnableThumbCollider--><g id="elem_EnableThumbCollider"><rect codeLine="38" fill="#F1F1F1" height="48" id="EnableThumbCollider" rx="2.5" ry="2.5" style="stroke:#181818;stroke-width:0.5;" width="168" x="1280.5" y="172"/><ellipse cx="1295.5" cy="188" fill="#ADD1B2" rx="11" ry="11" style="stroke:#181818;stroke-width:1.0;"/><path d="M1295.4375,183.8281 Q1294.6875,183.8281 1294.125,184.125 Q1293.5625,184.4063 1293.1719,184.9375 Q1292.7813,185.4688 1292.5781,186.25 Q1292.3906,187.0156 1292.3906,187.9688 Q1292.3906,188.9375 1292.5625,189.7031 Q1292.75,190.4531 1293.1094,190.9688 Q1293.4844,191.4844 1294.0625,191.7656 Q1294.6406,192.0313 1295.4375,192.0313 Q1296.1719,192.0313 1296.9063,191.8594 Q1297.6563,191.6875 1298.5313,191.3906 L1298.5313,193.5469 Q1298.125,193.7031 1297.7344,193.8281 Q1297.3438,193.9375 1296.9375,194.0156 Q1296.5313,194.0938 1296.1094,194.125 Q1295.6875,194.1719 1295.1875,194.1719 Q1293.7813,194.1719 1292.75,193.7188 Q1291.7344,193.2656 1291.0625,192.4531 Q1290.3906,191.6406 1290.0625,190.5 Q1289.7344,189.3438 1289.7344,187.9531 Q1289.7344,186.5781 1290.1094,185.4219 Q1290.4844,184.2656 1291.2031,183.4375 Q1291.9219,182.6094 1292.9844,182.1563 Q1294.0469,181.6875 1295.4375,181.6875 Q1296.3438,181.6875 1297.25,181.9219 Q1298.1563,182.1406 1298.9844,182.5469 L1298.1563,184.6406 Q1297.4688,184.3125 1296.7813,184.0781 Q1296.0938,183.8281 1295.4375,183.8281 Z " fill="#000000"/><text fill="#000000" font-family="sans-serif" font-size="14" lengthAdjust="spacing" textLength="136" x="1309.5" y="192.8467">EnableThumbCollider</text><line style="stroke:#181818;stroke-width:0.5;" x1="1281.5" x2="1447.5" y1="204" y2="204"/><line style="stroke:#181818;stroke-width:0.5;" x1="1281.5" x2="1447.5" y1="212" y2="212"/></g><!--class Collider--><g id="elem_Collider"><rect fill="#F1F1F1" height="48" id="Collider" rx="2.5" ry="2.5" style="stroke:#181818;stroke-width:0.5;" width="82" x="1323.5" y="337"/><ellipse cx="1338.5" cy="353" fill="#ADD1B2" rx="11" ry="11" style="stroke:#181818;stroke-width:1.0;"/><path d="M1338.4375,348.8281 Q1337.6875,348.8281 1337.125,349.125 Q1336.5625,349.4063 1336.1719,349.9375 Q1335.7813,350.4688 1335.5781,351.25 Q1335.3906,352.0156 1335.3906,352.9688 Q1335.3906,353.9375 1335.5625,354.7031 Q1335.75,355.4531 1336.1094,355.9688 Q1336.4844,356.4844 1337.0625,356.7656 Q1337.6406,357.0313 1338.4375,357.0313 Q1339.1719,357.0313 1339.9063,356.8594 Q1340.6563,356.6875 1341.5313,356.3906 L1341.5313,358.5469 Q1341.125,358.7031 1340.7344,358.8281 Q1340.3438,358.9375 1339.9375,359.0156 Q1339.5313,359.0938 1339.1094,359.125 Q1338.6875,359.1719 1338.1875,359.1719 Q1336.7813,359.1719 1335.75,358.7188 Q1334.7344,358.2656 1334.0625,357.4531 Q1333.3906,356.6406 1333.0625,355.5 Q1332.7344,354.3438 1332.7344,352.9531 Q1332.7344,351.5781 1333.1094,350.4219 Q1333.4844,349.2656 1334.2031,348.4375 Q1334.9219,347.6094 1335.9844,347.1563 Q1337.0469,346.6875 1338.4375,346.6875 Q1339.3438,346.6875 1340.25,346.9219 Q1341.1563,347.1406 1341.9844,347.5469 L1341.1563,349.6406 Q1340.4688,349.3125 1339.7813,349.0781 Q1339.0938,348.8281 1338.4375,348.8281 Z " fill="#000000"/><text fill="#000000" font-family="sans-serif" font-size="14" lengthAdjust="spacing" textLength="50" x="1352.5" y="357.8467">Collider</text><line style="stroke:#181818;stroke-width:0.5;" x1="1324.5" x2="1404.5" y1="369" y2="369"/><line style="stroke:#181818;stroke-width:0.5;" x1="1324.5" x2="1404.5" y1="377" y2="377"/></g><!--class ExoMovements--><g id="elem_ExoMovements"><rect codeLine="42" fill="#F1F1F1" height="129.4844" id="ExoMovements" rx="2.5" ry="2.5" style="stroke:#181818;stroke-width:0.5;" width="236" x="1483.5" y="131.5"/><ellipse cx="1548.75" cy="147.5" fill="#ADD1B2" rx="11" ry="11" style="stroke:#181818;stroke-width:1.0;"/><path d="M1548.6875,143.3281 Q1547.9375,143.3281 1547.375,143.625 Q1546.8125,143.9063 1546.4219,144.4375 Q1546.0313,144.9688 1545.8281,145.75 Q1545.6406,146.5156 1545.6406,147.4688 Q1545.6406,148.4375 1545.8125,149.2031 Q1546,149.9531 1546.3594,150.4688 Q1546.7344,150.9844 1547.3125,151.2656 Q1547.8906,151.5313 1548.6875,151.5313 Q1549.4219,151.5313 1550.1563,151.3594 Q1550.9063,151.1875 1551.7813,150.8906 L1551.7813,153.0469 Q1551.375,153.2031 1550.9844,153.3281 Q1550.5938,153.4375 1550.1875,153.5156 Q1549.7813,153.5938 1549.3594,153.625 Q1548.9375,153.6719 1548.4375,153.6719 Q1547.0313,153.6719 1546,153.2188 Q1544.9844,152.7656 1544.3125,151.9531 Q1543.6406,151.1406 1543.3125,150 Q1542.9844,148.8438 1542.9844,147.4531 Q1542.9844,146.0781 1543.3594,144.9219 Q1543.7344,143.7656 1544.4531,142.9375 Q1545.1719,142.1094 1546.2344,141.6563 Q1547.2969,141.1875 1548.6875,141.1875 Q1549.5938,141.1875 1550.5,141.4219 Q1551.4063,141.6406 1552.2344,142.0469 L1551.4063,144.1406 Q1550.7188,143.8125 1550.0313,143.5781 Q1549.3438,143.3281 1548.6875,143.3281 Z " fill="#000000"/><text fill="#000000" font-family="sans-serif" font-size="14" lengthAdjust="spacing" textLength="97" x="1569.25" y="152.3467">ExoMovements</text><line style="stroke:#181818;stroke-width:0.5;" x1="1484.5" x2="1718.5" y1="163.5" y2="163.5"/><ellipse cx="1494.5" cy="177.1484" fill="none" rx="3" ry="3" style="stroke:#038048;stroke-width:1.0;"/><text fill="#000000" font-family="sans-serif" font-size="14" lengthAdjust="spacing" textLength="158" x="1503.5" y="180.4951">maxRotation : float = 45f</text><ellipse cx="1494.5" cy="193.4453" fill="none" rx="3" ry="3" style="stroke:#038048;stroke-width:1.0;"/><text fill="#000000" font-family="sans-serif" font-size="14" lengthAdjust="spacing" textLength="119" x="1503.5" y="196.792">minRotation : float</text><ellipse cx="1494.5" cy="209.7422" fill="none" rx="3" ry="3" style="stroke:#038048;stroke-width:1.0;"/><text fill="#000000" font-family="sans-serif" font-size="14" lengthAdjust="spacing" textLength="159" x="1503.5" y="213.0889">resetDuration : float = 1f</text><ellipse cx="1494.5" cy="226.0391" fill="none" rx="3" ry="3" style="stroke:#038048;stroke-width:1.0;"/><text fill="#000000" font-family="sans-serif" font-size="14" lengthAdjust="spacing" textLength="210" x="1503.5" y="229.3857">pauseBetweenJoints : float = 0.3f</text><line style="stroke:#181818;stroke-width:0.5;" x1="1484.5" x2="1718.5" y1="236.6875" y2="236.6875"/><ellipse cx="1494.5" cy="250.3359" fill="#84BE84" rx="3" ry="3" style="stroke:#038048;stroke-width:1.0;"/><text fill="#000000" font-family="sans-serif" font-size="14" lengthAdjust="spacing" textLength="195" x="1503.5" y="253.6826">ResetJointsSequentially() : void</text></g><!--reverse link MonoBehaviour to ToggleMenuFollow--><g id="link_MonoBehaviour_ToggleMenuFollow"><path codeLine="8" d="M811.73,37.62 C654.95,48.61 330.97,75.39 225.5,115 C213.91,119.35 202.35,125.05 191.25,131.41 " fill="none" id="MonoBehaviour-backto-ToggleMenuFollow" style="stroke:#181818;stroke-width:1.0;"/><polygon fill="none" points="811.36,30.63,831.8,36.24,812.33,44.6,811.36,30.63" style="stroke:#181818;stroke-width:1.0;"/></g><!--link ToggleMenuFollow to GameObject--><g id="link_ToggleMenuFollow_GameObject"><path codeLine="9" d="M95.02,260.95 C94.26,285.41 95.11,312.08 97.55,331.58 " fill="none" id="ToggleMenuFollow-to-GameObject" style="stroke:#181818;stroke-width:1.0;"/><polygon fill="#181818" points="98.28,336.88,101.0091,327.4168,97.5949,331.9272,93.0845,328.513,98.28,336.88" style="stroke:#181818;stroke-width:1.0;"/><text fill="#000000" font-family="sans-serif" font-size="13" lengthAdjust="spacing" textLength="35" x="56.433" y="325.8613">menu</text></g><!--link ToggleMenuFollow to GameObject--><g id="link_ToggleMenuFollow_GameObject"><path codeLine="10" d="M120.72,260.95 C121.52,285.41 120.62,312.08 118.04,331.58 " fill="none" id="ToggleMenuFollow-to-GameObject-1" style="stroke:#181818;stroke-width:1.0;"/><polygon fill="#181818" points="117.26,336.88,122.5262,328.5573,117.9871,331.9331,114.6112,327.394,117.26,336.88" style="stroke:#181818;stroke-width:1.0;"/><text fill="#000000" font-family="sans-serif" font-size="13" lengthAdjust="spacing" textLength="72" x="128.986" y="325.8613">exoSkeleton</text></g><!--link ToggleMenuFollow to TMP_Text--><g id="link_ToggleMenuFollow_TMP_Text"><path codeLine="11" d="M191.94,260.72 C225.63,286.15 262.54,314 288.67,333.72 " fill="none" id="ToggleMenuFollow-to-TMP_Text" style="stroke:#181818;stroke-width:1.0;"/><polygon fill="#181818" points="292.77,336.81,288.0045,328.1909,288.782,333.794,283.1789,334.5716,292.77,336.81" style="stroke:#181818;stroke-width:1.0;"/><text fill="#000000" font-family="sans-serif" font-size="13" lengthAdjust="spacing" textLength="49" x="229.6173" y="325.7733">tmpText</text></g><!--reverse link MonoBehaviour to ArduinoConnector--><g id="link_MonoBehaviour_ArduinoConnector"><path codeLine="18" d="M812.15,50.28 C747.29,65.01 656.72,87.73 579.5,115 C559.31,122.13 538.24,130.65 517.98,139.42 " fill="none" id="MonoBehaviour-backto-ArduinoConnector" style="stroke:#181818;stroke-width:1.0;"/><polygon fill="none" points="810.79,43.41,831.84,45.87,813.85,57.07,810.79,43.41" style="stroke:#181818;stroke-width:1.0;"/></g><!--link ArduinoConnector to TMP_Text--><g id="link_ArduinoConnector_TMP_Text"><path codeLine="19" d="M375.53,252.64 C362.51,279.5 347.47,310.55 336.91,332.32 " fill="none" id="ArduinoConnector-to-TMP_Text" style="stroke:#181818;stroke-width:1.0;"/><polygon fill="#181818" points="334.73,336.82,342.2602,330.472,336.9145,332.3225,335.0641,326.9768,334.73,336.82" style="stroke:#181818;stroke-width:1.0;"/><text fill="#000000" font-family="sans-serif" font-size="13" lengthAdjust="spacing" textLength="97" x="350.0358" y="325.7859">connectionLabel</text></g><!--reverse link MonoBehaviour to ControlEkoSkeleton--><g id="link_MonoBehaviour_ControlEkoSkeleton"><path codeLine="24" d="M853.46,67.64 C820.69,93.56 776.32,128.67 742.47,155.46 " fill="none" id="MonoBehaviour-backto-ControlEkoSkeleton" style="stroke:#181818;stroke-width:1.0;"/><polygon fill="none" points="849.39,61.93,869.42,55.01,858.08,72.91,849.39,61.93" style="stroke:#181818;stroke-width:1.0;"/></g><!--reverse link MonoBehaviour to SliderAngleDisplay--><g id="link_MonoBehaviour_SliderAngleDisplay"><path codeLine="27" d="M898.5,75.08 C898.5,106.1 898.5,146.74 898.5,171.85 " fill="none" id="MonoBehaviour-backto-SliderAngleDisplay" style="stroke:#181818;stroke-width:1.0;"/><polygon fill="none" points="891.5,75.01,898.5,55.01,905.5,75.01,891.5,75.01" style="stroke:#181818;stroke-width:1.0;"/></g><!--reverse link MonoBehaviour to ExoGrabApple--><g id="link_MonoBehaviour_ExoGrabApple"><path codeLine="37" d="M947.19,66.66 C967.12,80.84 991.07,97.89 1014.91,114.86 " fill="none" id="MonoBehaviour-backto-ExoGrabApple" style="stroke:#181818;stroke-width:1.0;"/><polygon fill="none" points="943.06,72.31,930.82,55.01,951.18,60.9,943.06,72.31" style="stroke:#181818;stroke-width:1.0;"/></g><!--reverse link MonoBehaviour to EnableThumbCollider--><g id="link_MonoBehaviour_EnableThumbCollider"><path codeLine="40" d="M985.05,40.69 C1061.34,50.86 1173.98,72.12 1263.5,115 C1293.36,129.3 1322.45,153.81 1341.68,171.94 " fill="none" id="MonoBehaviour-backto-EnableThumbCollider" style="stroke:#181818;stroke-width:1.0;"/><polygon fill="none" points="983.99,47.61,965.02,38.16,985.74,33.72,983.99,47.61" style="stroke:#181818;stroke-width:1.0;"/></g><!--link EnableThumbCollider to Collider--><g id="link_EnableThumbCollider_Collider"><path codeLine="41" d="M1364.5,220.01 C1364.5,249.29 1364.5,299.87 1364.5,331.55 " fill="none" id="EnableThumbCollider-to-Collider" style="stroke:#181818;stroke-width:1.0;"/><polygon fill="#181818" points="1364.5,336.85,1368.5,327.85,1364.5,331.85,1360.5,327.85,1364.5,336.85" style="stroke:#181818;stroke-width:1.0;"/><text fill="#000000" font-family="sans-serif" font-size="13" lengthAdjust="spacing" textLength="85" x="1268.6094" y="325.8236">thumbCollider</text></g><!--reverse link MonoBehaviour to ExoMovements--><g id="link_MonoBehaviour_ExoMovements"><path codeLine="49" d="M985.36,34.28 C1099,39.57 1302.87,57.11 1466.5,115 C1479.09,119.45 1491.8,125.13 1504.13,131.4 " fill="none" id="MonoBehaviour-backto-ExoMovements" style="stroke:#181818;stroke-width:1.0;"/><polygon fill="none" points="984.91,41.26,965.23,33.42,985.51,27.28,984.91,41.26" style="stroke:#181818;stroke-width:1.0;"/></g><!--SRC=[bPHjRvim4CVVyoaiNcsQWfgGL6krJKeVLcqQQjJmlZ9m4BV6nsoJfdluxZFWaF3GTUCLvlvtv_lT7J6dIf4Giun30AByZ9pZ4_df4FEy8sbzl69AKn43EISfHwh9HpBr5gdLR45g5bD-cwOAz5vZZHkKx0SAtJUR42Vx04ts9lERjqQnHPPqRDU2HXoIW_6t4w302zZGBSDIaW-_9fD15SwWhCda4t5pStR93StXDdg0MByWWnsk7u63Hl4FQfqN8UoqIy9WTL-zEN5DTYcJaWcyH26CCygMB6qCNrQc9AKb4vb1uaxFPjxqzBqtzxt5YTkLhb1M-9Ye-S_y-SBQRV0GRR8-mpM8902bQ0O7JTvyE6zo_nrilmXdK5ND86wE3CKt6W4Vi31oBP5VFxPWMngspJjKrZ8-1_qP6RtjC8tDl-Oi0RaK9f2Pw8BJPvD_DCHGQKEO6zv86YsBWaDx-GSqFPc5L6QWQv-Z8VVRAQzL_hXglkYevkEgqswinRXgrbK5k8MhKjAgBPtzRMK5BHLSW7u245yh5tMyf9xVhgbaMGQogdyDtqimFuHNEd5CQm-mtkHmK-RHfMbcXVcb9en8dJ7tPl-EFxcaTMZRLd4mcs-AsxSjfxixr7qmXrRaJFJjrYB1_Cd6eFulqhigK2Dea6f6ENz-7MjRpHy0]--></g></svg>