<?xml version="1.0" encoding="us-ascii" standalone="no"?><svg xmlns="http://www.w3.org/2000/svg" xmlns:xlink="http://www.w3.org/1999/xlink" contentStyleType="text/css" height="392px" preserveAspectRatio="none" style="width:1372px;height:392px;background:#FFFFFF;" version="1.1" viewBox="0 0 1372 392" width="1372px" zoomAndPan="magnify"><defs/><g><!--class ToggleMenuFollow--><g id="elem_ToggleMenuFollow"><rect codeLine="1" fill="#F1F1F1" height="129.4844" id="ToggleMenuFollow" rx="2.5" ry="2.5" style="stroke:#181818;stroke-width:0.5;" width="201" x="7" y="131.5"/><ellipse cx="44.95" cy="147.5" fill="#ADD1B2" rx="11" ry="11" style="stroke:#181818;stroke-width:1.0;"/><path d="M44.8875,143.3281 Q44.1375,143.3281 43.575,143.625 Q43.0125,143.9063 42.6219,144.4375 Q42.2313,144.9688 42.0281,145.75 Q41.8406,146.5156 41.8406,147.4688 Q41.8406,148.4375 42.0125,149.2031 Q42.2,149.9531 42.5594,150.4688 Q42.9344,150.9844 43.5125,151.2656 Q44.0906,151.5313 44.8875,151.5313 Q45.6219,151.5313 46.3563,151.3594 Q47.1063,151.1875 47.9813,150.8906 L47.9813,153.0469 Q47.575,153.2031 47.1844,153.3281 Q46.7938,153.4375 46.3875,153.5156 Q45.9813,153.5938 45.5594,153.625 Q45.1375,153.6719 44.6375,153.6719 Q43.2313,153.6719 42.2,153.2188 Q41.1844,152.7656 40.5125,151.9531 Q39.8406,151.1406 39.5125,150 Q39.1844,148.8438 39.1844,147.4531 Q39.1844,146.0781 39.5594,144.9219 Q39.9344,143.7656 40.6531,142.9375 Q41.3719,142.1094 42.4344,141.6563 Q43.4969,141.1875 44.8875,141.1875 Q45.7938,141.1875 46.7,141.4219 Q47.6063,141.6406 48.4344,142.0469 L47.6063,144.1406 Q46.9188,143.8125 46.2313,143.5781 Q45.5438,143.3281 44.8875,143.3281 Z " fill="#000000"/><text fill="#000000" font-family="sans-serif" font-size="14" lengthAdjust="spacing" textLength="118" x="64.05" y="152.3467">ToggleMenuFollow</text><line style="stroke:#181818;stroke-width:0.5;" x1="8" x2="207" y1="163.5" y2="163.5"/><ellipse cx="18" cy="177.1484" fill="none" rx="3" ry="3" style="stroke:#038048;stroke-width:1.0;"/><text fill="#000000" font-family="sans-serif" font-size="14" lengthAdjust="spacing" textLength="175" x="27" y="180.4951">followDistance : float = 1.5f</text><ellipse cx="18" cy="193.4453" fill="none" rx="3" ry="3" style="stroke:#038048;stroke-width:1.0;"/><text fill="#000000" font-family="sans-serif" font-size="14" lengthAdjust="spacing" textLength="127" x="27" y="196.792">verticalOffset : float</text><ellipse cx="18" cy="209.7422" fill="none" rx="3" ry="3" style="stroke:#038048;stroke-width:1.0;"/><text fill="#000000" font-family="sans-serif" font-size="14" lengthAdjust="spacing" textLength="173" x="27" y="213.0889">horizontalOffset : float = 0f</text><line style="stroke:#181818;stroke-width:0.5;" x1="8" x2="207" y1="220.3906" y2="220.3906"/><ellipse cx="18" cy="234.0391" fill="#84BE84" rx="3" ry="3" style="stroke:#038048;stroke-width:1.0;"/><text fill="#000000" font-family="sans-serif" font-size="14" lengthAdjust="spacing" textLength="129" x="27" y="237.3857">ToggleFollow() : void</text><ellipse cx="18" cy="250.3359" fill="#84BE84" rx="3" ry="3" style="stroke:#038048;stroke-width:1.0;"/><text fill="#000000" font-family="sans-serif" font-size="14" lengthAdjust="spacing" textLength="138" x="27" y="253.6826">ToggleEnabled() : void</text></g><!--class MonoBehaviour--><g id="elem_MonoBehaviour"><rect fill="#F1F1F1" height="48" id="MonoBehaviour" rx="2.5" ry="2.5" style="stroke:#181818;stroke-width:0.5;" width="133" x="592" y="7"/><ellipse cx="607" cy="23" fill="#ADD1B2" rx="11" ry="11" style="stroke:#181818;stroke-width:1.0;"/><path d="M606.9375,18.8281 Q606.1875,18.8281 605.625,19.125 Q605.0625,19.4063 604.6719,19.9375 Q604.2813,20.4688 604.0781,21.25 Q603.8906,22.0156 603.8906,22.9688 Q603.8906,23.9375 604.0625,24.7031 Q604.25,25.4531 604.6094,25.9688 Q604.9844,26.4844 605.5625,26.7656 Q606.1406,27.0313 606.9375,27.0313 Q607.6719,27.0313 608.4063,26.8594 Q609.1563,26.6875 610.0313,26.3906 L610.0313,28.5469 Q609.625,28.7031 609.2344,28.8281 Q608.8438,28.9375 608.4375,29.0156 Q608.0313,29.0938 607.6094,29.125 Q607.1875,29.1719 606.6875,29.1719 Q605.2813,29.1719 604.25,28.7188 Q603.2344,28.2656 602.5625,27.4531 Q601.8906,26.6406 601.5625,25.5 Q601.2344,24.3438 601.2344,22.9531 Q601.2344,21.5781 601.6094,20.4219 Q601.9844,19.2656 602.7031,18.4375 Q603.4219,17.6094 604.4844,17.1563 Q605.5469,16.6875 606.9375,16.6875 Q607.8438,16.6875 608.75,16.9219 Q609.6563,17.1406 610.4844,17.5469 L609.6563,19.6406 Q608.9688,19.3125 608.2813,19.0781 Q607.5938,18.8281 606.9375,18.8281 Z " fill="#000000"/><text fill="#000000" font-family="sans-serif" font-size="14" lengthAdjust="spacing" textLength="101" x="621" y="27.8467">MonoBehaviour</text><line style="stroke:#181818;stroke-width:0.5;" x1="593" x2="724" y1="39" y2="39"/><line style="stroke:#181818;stroke-width:0.5;" x1="593" x2="724" y1="47" y2="47"/></g><!--class GameObject--><g id="elem_GameObject"><rect fill="#F1F1F1" height="48" id="GameObject" rx="2.5" ry="2.5" style="stroke:#181818;stroke-width:0.5;" width="111" x="52" y="337"/><ellipse cx="67" cy="353" fill="#ADD1B2" rx="11" ry="11" style="stroke:#181818;stroke-width:1.0;"/><path d="M66.9375,348.8281 Q66.1875,348.8281 65.625,349.125 Q65.0625,349.4063 64.6719,349.9375 Q64.2813,350.4688 64.0781,351.25 Q63.8906,352.0156 63.8906,352.9688 Q63.8906,353.9375 64.0625,354.7031 Q64.25,355.4531 64.6094,355.9688 Q64.9844,356.4844 65.5625,356.7656 Q66.1406,357.0313 66.9375,357.0313 Q67.6719,357.0313 68.4063,356.8594 Q69.1563,356.6875 70.0313,356.3906 L70.0313,358.5469 Q69.625,358.7031 69.2344,358.8281 Q68.8438,358.9375 68.4375,359.0156 Q68.0313,359.0938 67.6094,359.125 Q67.1875,359.1719 66.6875,359.1719 Q65.2813,359.1719 64.25,358.7188 Q63.2344,358.2656 62.5625,357.4531 Q61.8906,356.6406 61.5625,355.5 Q61.2344,354.3438 61.2344,352.9531 Q61.2344,351.5781 61.6094,350.4219 Q61.9844,349.2656 62.7031,348.4375 Q63.4219,347.6094 64.4844,347.1563 Q65.5469,346.6875 66.9375,346.6875 Q67.8438,346.6875 68.75,346.9219 Q69.6563,347.1406 70.4844,347.5469 L69.6563,349.6406 Q68.9688,349.3125 68.2813,349.0781 Q67.5938,348.8281 66.9375,348.8281 Z " fill="#000000"/><text fill="#000000" font-family="sans-serif" font-size="14" lengthAdjust="spacing" textLength="79" x="81" y="357.8467">GameObject</text><line style="stroke:#181818;stroke-width:0.5;" x1="53" x2="162" y1="369" y2="369"/><line style="stroke:#181818;stroke-width:0.5;" x1="53" x2="162" y1="377" y2="377"/></g><!--class TMP_Text--><g id="elem_TMP_Text"><rect fill="#F1F1F1" height="48" id="TMP_Text" rx="2.5" ry="2.5" style="stroke:#181818;stroke-width:0.5;" width="92" x="198.5" y="337"/><ellipse cx="213.5" cy="353" fill="#ADD1B2" rx="11" ry="11" style="stroke:#181818;stroke-width:1.0;"/><path d="M213.4375,348.8281 Q212.6875,348.8281 212.125,349.125 Q211.5625,349.4063 211.1719,349.9375 Q210.7813,350.4688 210.5781,351.25 Q210.3906,352.0156 210.3906,352.9688 Q210.3906,353.9375 210.5625,354.7031 Q210.75,355.4531 211.1094,355.9688 Q211.4844,356.4844 212.0625,356.7656 Q212.6406,357.0313 213.4375,357.0313 Q214.1719,357.0313 214.9063,356.8594 Q215.6563,356.6875 216.5313,356.3906 L216.5313,358.5469 Q216.125,358.7031 215.7344,358.8281 Q215.3438,358.9375 214.9375,359.0156 Q214.5313,359.0938 214.1094,359.125 Q213.6875,359.1719 213.1875,359.1719 Q211.7813,359.1719 210.75,358.7188 Q209.7344,358.2656 209.0625,357.4531 Q208.3906,356.6406 208.0625,355.5 Q207.7344,354.3438 207.7344,352.9531 Q207.7344,351.5781 208.1094,350.4219 Q208.4844,349.2656 209.2031,348.4375 Q209.9219,347.6094 210.9844,347.1563 Q212.0469,346.6875 213.4375,346.6875 Q214.3438,346.6875 215.25,346.9219 Q216.1563,347.1406 216.9844,347.5469 L216.1563,349.6406 Q215.4688,349.3125 214.7813,349.0781 Q214.0938,348.8281 213.4375,348.8281 Z " fill="#000000"/><text fill="#000000" font-family="sans-serif" font-size="14" lengthAdjust="spacing" textLength="60" x="227.5" y="357.8467">TMP_Text</text><line style="stroke:#181818;stroke-width:0.5;" x1="199.5" x2="289.5" y1="369" y2="369"/><line style="stroke:#181818;stroke-width:0.5;" x1="199.5" x2="289.5" y1="377" y2="377"/></g><!--class ControlEkoSkeleton--><g id="elem_ControlEkoSkeleton"><rect codeLine="12" fill="#F1F1F1" height="80.5938" id="ControlEkoSkeleton" rx="2.5" ry="2.5" style="stroke:#181818;stroke-width:0.5;" width="190" x="243.5" y="155.5"/><ellipse cx="273.8" cy="171.5" fill="#ADD1B2" rx="11" ry="11" style="stroke:#181818;stroke-width:1.0;"/><path d="M273.7375,167.3281 Q272.9875,167.3281 272.425,167.625 Q271.8625,167.9063 271.4719,168.4375 Q271.0813,168.9688 270.8781,169.75 Q270.6906,170.5156 270.6906,171.4688 Q270.6906,172.4375 270.8625,173.2031 Q271.05,173.9531 271.4094,174.4688 Q271.7844,174.9844 272.3625,175.2656 Q272.9406,175.5313 273.7375,175.5313 Q274.4719,175.5313 275.2063,175.3594 Q275.9563,175.1875 276.8313,174.8906 L276.8313,177.0469 Q276.425,177.2031 276.0344,177.3281 Q275.6438,177.4375 275.2375,177.5156 Q274.8313,177.5938 274.4094,177.625 Q273.9875,177.6719 273.4875,177.6719 Q272.0813,177.6719 271.05,177.2188 Q270.0344,176.7656 269.3625,175.9531 Q268.6906,175.1406 268.3625,174 Q268.0344,172.8438 268.0344,171.4531 Q268.0344,170.0781 268.4094,168.9219 Q268.7844,167.7656 269.5031,166.9375 Q270.2219,166.1094 271.2844,165.6563 Q272.3469,165.1875 273.7375,165.1875 Q274.6438,165.1875 275.55,165.4219 Q276.4563,165.6406 277.2844,166.0469 L276.4563,168.1406 Q275.7688,167.8125 275.0813,167.5781 Q274.3938,167.3281 273.7375,167.3281 Z " fill="#000000"/><text fill="#000000" font-family="sans-serif" font-size="14" lengthAdjust="spacing" textLength="124" x="291.2" y="176.3467">ControlEkoSkeleton</text><line style="stroke:#181818;stroke-width:0.5;" x1="244.5" x2="432.5" y1="187.5" y2="187.5"/><line style="stroke:#181818;stroke-width:0.5;" x1="244.5" x2="432.5" y1="195.5" y2="195.5"/><ellipse cx="254.5" cy="209.1484" fill="#84BE84" rx="3" ry="3" style="stroke:#038048;stroke-width:1.0;"/><text fill="#000000" font-family="sans-serif" font-size="14" lengthAdjust="spacing" textLength="164" x="263.5" y="212.4951">ToggleExoskeleton() : void</text><ellipse cx="254.5" cy="225.4453" fill="#84BE84" rx="3" ry="3" style="stroke:#038048;stroke-width:1.0;"/><text fill="#000000" font-family="sans-serif" font-size="14" lengthAdjust="spacing" textLength="129" x="263.5" y="228.792">ToggleFollow() : void</text></g><!--class SliderAngleDisplay--><g id="elem_SliderAngleDisplay"><rect codeLine="17" fill="#F1F1F1" height="48" id="SliderAngleDisplay" rx="2.5" ry="2.5" style="stroke:#181818;stroke-width:0.5;" width="151" x="469" y="172"/><ellipse cx="484" cy="188" fill="#ADD1B2" rx="11" ry="11" style="stroke:#181818;stroke-width:1.0;"/><path d="M483.9375,183.8281 Q483.1875,183.8281 482.625,184.125 Q482.0625,184.4063 481.6719,184.9375 Q481.2813,185.4688 481.0781,186.25 Q480.8906,187.0156 480.8906,187.9688 Q480.8906,188.9375 481.0625,189.7031 Q481.25,190.4531 481.6094,190.9688 Q481.9844,191.4844 482.5625,191.7656 Q483.1406,192.0313 483.9375,192.0313 Q484.6719,192.0313 485.4063,191.8594 Q486.1563,191.6875 487.0313,191.3906 L487.0313,193.5469 Q486.625,193.7031 486.2344,193.8281 Q485.8438,193.9375 485.4375,194.0156 Q485.0313,194.0938 484.6094,194.125 Q484.1875,194.1719 483.6875,194.1719 Q482.2813,194.1719 481.25,193.7188 Q480.2344,193.2656 479.5625,192.4531 Q478.8906,191.6406 478.5625,190.5 Q478.2344,189.3438 478.2344,187.9531 Q478.2344,186.5781 478.6094,185.4219 Q478.9844,184.2656 479.7031,183.4375 Q480.4219,182.6094 481.4844,182.1563 Q482.5469,181.6875 483.9375,181.6875 Q484.8438,181.6875 485.75,181.9219 Q486.6563,182.1406 487.4844,182.5469 L486.6563,184.6406 Q485.9688,184.3125 485.2813,184.0781 Q484.5938,183.8281 483.9375,183.8281 Z " fill="#000000"/><text fill="#000000" font-family="sans-serif" font-size="14" lengthAdjust="spacing" textLength="119" x="498" y="192.8467">SliderAngleDisplay</text><line style="stroke:#181818;stroke-width:0.5;" x1="470" x2="619" y1="204" y2="204"/><line style="stroke:#181818;stroke-width:0.5;" x1="470" x2="619" y1="212" y2="212"/></g><!--class ExoGrabApple--><g id="elem_ExoGrabApple"><rect codeLine="20" fill="#F1F1F1" height="162.0781" id="ExoGrabApple" rx="2.5" ry="2.5" style="stroke:#181818;stroke-width:0.5;" width="236" x="655.5" y="115"/><ellipse cx="724.25" cy="131" fill="#ADD1B2" rx="11" ry="11" style="stroke:#181818;stroke-width:1.0;"/><path d="M724.1875,126.8281 Q723.4375,126.8281 722.875,127.125 Q722.3125,127.4063 721.9219,127.9375 Q721.5313,128.4688 721.3281,129.25 Q721.1406,130.0156 721.1406,130.9688 Q721.1406,131.9375 721.3125,132.7031 Q721.5,133.4531 721.8594,133.9688 Q722.2344,134.4844 722.8125,134.7656 Q723.3906,135.0313 724.1875,135.0313 Q724.9219,135.0313 725.6563,134.8594 Q726.4063,134.6875 727.2813,134.3906 L727.2813,136.5469 Q726.875,136.7031 726.4844,136.8281 Q726.0938,136.9375 725.6875,137.0156 Q725.2813,137.0938 724.8594,137.125 Q724.4375,137.1719 723.9375,137.1719 Q722.5313,137.1719 721.5,136.7188 Q720.4844,136.2656 719.8125,135.4531 Q719.1406,134.6406 718.8125,133.5 Q718.4844,132.3438 718.4844,130.9531 Q718.4844,129.5781 718.8594,128.4219 Q719.2344,127.2656 719.9531,126.4375 Q720.6719,125.6094 721.7344,125.1563 Q722.7969,124.6875 724.1875,124.6875 Q725.0938,124.6875 726,124.9219 Q726.9063,125.1406 727.7344,125.5469 L726.9063,127.6406 Q726.2188,127.3125 725.5313,127.0781 Q724.8438,126.8281 724.1875,126.8281 Z " fill="#000000"/><text fill="#000000" font-family="sans-serif" font-size="14" lengthAdjust="spacing" textLength="90" x="744.75" y="135.8467">ExoGrabApple</text><line style="stroke:#181818;stroke-width:0.5;" x1="656.5" x2="890.5" y1="147" y2="147"/><ellipse cx="666.5" cy="160.6484" fill="none" rx="3" ry="3" style="stroke:#038048;stroke-width:1.0;"/><text fill="#000000" font-family="sans-serif" font-size="14" lengthAdjust="spacing" textLength="191" x="675.5" y="163.9951">joint2TargetAngle : float = 30f</text><ellipse cx="666.5" cy="176.9453" fill="none" rx="3" ry="3" style="stroke:#038048;stroke-width:1.0;"/><text fill="#000000" font-family="sans-serif" font-size="14" lengthAdjust="spacing" textLength="191" x="675.5" y="180.292">joint3TargetAngle : float = 45f</text><ellipse cx="666.5" cy="193.2422" fill="none" rx="3" ry="3" style="stroke:#038048;stroke-width:1.0;"/><text fill="#000000" font-family="sans-serif" font-size="14" lengthAdjust="spacing" textLength="191" x="675.5" y="196.5889">joint4TargetAngle : float = 60f</text><ellipse cx="666.5" cy="209.5391" fill="none" rx="3" ry="3" style="stroke:#038048;stroke-width:1.0;"/><text fill="#000000" font-family="sans-serif" font-size="14" lengthAdjust="spacing" textLength="191" x="675.5" y="212.8857">joint5TargetAngle : float = 20f</text><ellipse cx="666.5" cy="225.8359" fill="none" rx="3" ry="3" style="stroke:#038048;stroke-width:1.0;"/><text fill="#000000" font-family="sans-serif" font-size="14" lengthAdjust="spacing" textLength="202" x="675.5" y="229.1826">jointMoveDuration : float = 1.0f</text><ellipse cx="666.5" cy="242.1328" fill="none" rx="3" ry="3" style="stroke:#038048;stroke-width:1.0;"/><text fill="#000000" font-family="sans-serif" font-size="14" lengthAdjust="spacing" textLength="210" x="675.5" y="245.4795">pauseBetweenJoints : float = 0.3f</text><line style="stroke:#181818;stroke-width:0.5;" x1="656.5" x2="890.5" y1="252.7813" y2="252.7813"/><ellipse cx="666.5" cy="266.4297" fill="#84BE84" rx="3" ry="3" style="stroke:#038048;stroke-width:1.0;"/><text fill="#000000" font-family="sans-serif" font-size="14" lengthAdjust="spacing" textLength="184" x="675.5" y="269.7764">TriggerGrabSequence() : void</text></g><!--class EnableThumbCollider--><g id="elem_EnableThumbCollider"><rect codeLine="30" fill="#F1F1F1" height="48" id="EnableThumbCollider" rx="2.5" ry="2.5" style="stroke:#181818;stroke-width:0.5;" width="168" x="926.5" y="172"/><ellipse cx="941.5" cy="188" fill="#ADD1B2" rx="11" ry="11" style="stroke:#181818;stroke-width:1.0;"/><path d="M941.4375,183.8281 Q940.6875,183.8281 940.125,184.125 Q939.5625,184.4063 939.1719,184.9375 Q938.7813,185.4688 938.5781,186.25 Q938.3906,187.0156 938.3906,187.9688 Q938.3906,188.9375 938.5625,189.7031 Q938.75,190.4531 939.1094,190.9688 Q939.4844,191.4844 940.0625,191.7656 Q940.6406,192.0313 941.4375,192.0313 Q942.1719,192.0313 942.9063,191.8594 Q943.6563,191.6875 944.5313,191.3906 L944.5313,193.5469 Q944.125,193.7031 943.7344,193.8281 Q943.3438,193.9375 942.9375,194.0156 Q942.5313,194.0938 942.1094,194.125 Q941.6875,194.1719 941.1875,194.1719 Q939.7813,194.1719 938.75,193.7188 Q937.7344,193.2656 937.0625,192.4531 Q936.3906,191.6406 936.0625,190.5 Q935.7344,189.3438 935.7344,187.9531 Q935.7344,186.5781 936.1094,185.4219 Q936.4844,184.2656 937.2031,183.4375 Q937.9219,182.6094 938.9844,182.1563 Q940.0469,181.6875 941.4375,181.6875 Q942.3438,181.6875 943.25,181.9219 Q944.1563,182.1406 944.9844,182.5469 L944.1563,184.6406 Q943.4688,184.3125 942.7813,184.0781 Q942.0938,183.8281 941.4375,183.8281 Z " fill="#000000"/><text fill="#000000" font-family="sans-serif" font-size="14" lengthAdjust="spacing" textLength="136" x="955.5" y="192.8467">EnableThumbCollider</text><line style="stroke:#181818;stroke-width:0.5;" x1="927.5" x2="1093.5" y1="204" y2="204"/><line style="stroke:#181818;stroke-width:0.5;" x1="927.5" x2="1093.5" y1="212" y2="212"/></g><!--class Collider--><g id="elem_Collider"><rect fill="#F1F1F1" height="48" id="Collider" rx="2.5" ry="2.5" style="stroke:#181818;stroke-width:0.5;" width="82" x="969.5" y="337"/><ellipse cx="984.5" cy="353" fill="#ADD1B2" rx="11" ry="11" style="stroke:#181818;stroke-width:1.0;"/><path d="M984.4375,348.8281 Q983.6875,348.8281 983.125,349.125 Q982.5625,349.4063 982.1719,349.9375 Q981.7813,350.4688 981.5781,351.25 Q981.3906,352.0156 981.3906,352.9688 Q981.3906,353.9375 981.5625,354.7031 Q981.75,355.4531 982.1094,355.9688 Q982.4844,356.4844 983.0625,356.7656 Q983.6406,357.0313 984.4375,357.0313 Q985.1719,357.0313 985.9063,356.8594 Q986.6563,356.6875 987.5313,356.3906 L987.5313,358.5469 Q987.125,358.7031 986.7344,358.8281 Q986.3438,358.9375 985.9375,359.0156 Q985.5313,359.0938 985.1094,359.125 Q984.6875,359.1719 984.1875,359.1719 Q982.7813,359.1719 981.75,358.7188 Q980.7344,358.2656 980.0625,357.4531 Q979.3906,356.6406 979.0625,355.5 Q978.7344,354.3438 978.7344,352.9531 Q978.7344,351.5781 979.1094,350.4219 Q979.4844,349.2656 980.2031,348.4375 Q980.9219,347.6094 981.9844,347.1563 Q983.0469,346.6875 984.4375,346.6875 Q985.3438,346.6875 986.25,346.9219 Q987.1563,347.1406 987.9844,347.5469 L987.1563,349.6406 Q986.4688,349.3125 985.7813,349.0781 Q985.0938,348.8281 984.4375,348.8281 Z " fill="#000000"/><text fill="#000000" font-family="sans-serif" font-size="14" lengthAdjust="spacing" textLength="50" x="998.5" y="357.8467">Collider</text><line style="stroke:#181818;stroke-width:0.5;" x1="970.5" x2="1050.5" y1="369" y2="369"/><line style="stroke:#181818;stroke-width:0.5;" x1="970.5" x2="1050.5" y1="377" y2="377"/></g><!--class ExoMovements--><g id="elem_ExoMovements"><rect codeLine="34" fill="#F1F1F1" height="129.4844" id="ExoMovements" rx="2.5" ry="2.5" style="stroke:#181818;stroke-width:0.5;" width="236" x="1129.5" y="131.5"/><ellipse cx="1194.75" cy="147.5" fill="#ADD1B2" rx="11" ry="11" style="stroke:#181818;stroke-width:1.0;"/><path d="M1194.6875,143.3281 Q1193.9375,143.3281 1193.375,143.625 Q1192.8125,143.9063 1192.4219,144.4375 Q1192.0313,144.9688 1191.8281,145.75 Q1191.6406,146.5156 1191.6406,147.4688 Q1191.6406,148.4375 1191.8125,149.2031 Q1192,149.9531 1192.3594,150.4688 Q1192.7344,150.9844 1193.3125,151.2656 Q1193.8906,151.5313 1194.6875,151.5313 Q1195.4219,151.5313 1196.1563,151.3594 Q1196.9063,151.1875 1197.7813,150.8906 L1197.7813,153.0469 Q1197.375,153.2031 1196.9844,153.3281 Q1196.5938,153.4375 1196.1875,153.5156 Q1195.7813,153.5938 1195.3594,153.625 Q1194.9375,153.6719 1194.4375,153.6719 Q1193.0313,153.6719 1192,153.2188 Q1190.9844,152.7656 1190.3125,151.9531 Q1189.6406,151.1406 1189.3125,150 Q1188.9844,148.8438 1188.9844,147.4531 Q1188.9844,146.0781 1189.3594,144.9219 Q1189.7344,143.7656 1190.4531,142.9375 Q1191.1719,142.1094 1192.2344,141.6563 Q1193.2969,141.1875 1194.6875,141.1875 Q1195.5938,141.1875 1196.5,141.4219 Q1197.4063,141.6406 1198.2344,142.0469 L1197.4063,144.1406 Q1196.7188,143.8125 1196.0313,143.5781 Q1195.3438,143.3281 1194.6875,143.3281 Z " fill="#000000"/><text fill="#000000" font-family="sans-serif" font-size="14" lengthAdjust="spacing" textLength="97" x="1215.25" y="152.3467">ExoMovements</text><line style="stroke:#181818;stroke-width:0.5;" x1="1130.5" x2="1364.5" y1="163.5" y2="163.5"/><ellipse cx="1140.5" cy="177.1484" fill="none" rx="3" ry="3" style="stroke:#038048;stroke-width:1.0;"/><text fill="#000000" font-family="sans-serif" font-size="14" lengthAdjust="spacing" textLength="158" x="1149.5" y="180.4951">maxRotation : float = 45f</text><ellipse cx="1140.5" cy="193.4453" fill="none" rx="3" ry="3" style="stroke:#038048;stroke-width:1.0;"/><text fill="#000000" font-family="sans-serif" font-size="14" lengthAdjust="spacing" textLength="119" x="1149.5" y="196.792">minRotation : float</text><ellipse cx="1140.5" cy="209.7422" fill="none" rx="3" ry="3" style="stroke:#038048;stroke-width:1.0;"/><text fill="#000000" font-family="sans-serif" font-size="14" lengthAdjust="spacing" textLength="159" x="1149.5" y="213.0889">resetDuration : float = 1f</text><ellipse cx="1140.5" cy="226.0391" fill="none" rx="3" ry="3" style="stroke:#038048;stroke-width:1.0;"/><text fill="#000000" font-family="sans-serif" font-size="14" lengthAdjust="spacing" textLength="210" x="1149.5" y="229.3857">pauseBetweenJoints : float = 0.3f</text><line style="stroke:#181818;stroke-width:0.5;" x1="1130.5" x2="1364.5" y1="236.6875" y2="236.6875"/><ellipse cx="1140.5" cy="250.3359" fill="#84BE84" rx="3" ry="3" style="stroke:#038048;stroke-width:1.0;"/><text fill="#000000" font-family="sans-serif" font-size="14" lengthAdjust="spacing" textLength="195" x="1149.5" y="253.6826">ResetJointsSequentially() : void</text></g><!--reverse link MonoBehaviour to ToggleMenuFollow--><g id="link_MonoBehaviour_ToggleMenuFollow"><path codeLine="8" d="M572,38.22 C482.43,47.01 339.82,67.66 225.5,115 C214.52,119.55 203.51,125.2 192.87,131.38 " fill="none" id="MonoBehaviour-backto-ToggleMenuFollow" style="stroke:#181818;stroke-width:1.0;"/><polygon fill="none" points="571.37,31.25,591.93,36.38,572.66,45.19,571.37,31.25" style="stroke:#181818;stroke-width:1.0;"/></g><!--link ToggleMenuFollow to GameObject--><g id="link_ToggleMenuFollow_GameObject"><path codeLine="9" d="M95.02,260.95 C94.26,285.41 95.11,312.08 97.55,331.58 " fill="none" id="ToggleMenuFollow-to-GameObject" style="stroke:#181818;stroke-width:1.0;"/><polygon fill="#181818" points="98.28,336.88,101.0091,327.4168,97.5949,331.9272,93.0845,328.513,98.28,336.88" style="stroke:#181818;stroke-width:1.0;"/><text fill="#000000" font-family="sans-serif" font-size="13" lengthAdjust="spacing" textLength="35" x="56.433" y="325.8613">menu</text></g><!--link ToggleMenuFollow to GameObject--><g id="link_ToggleMenuFollow_GameObject"><path codeLine="10" d="M120.72,260.95 C121.52,285.41 120.62,312.08 118.04,331.58 " fill="none" id="ToggleMenuFollow-to-GameObject-1" style="stroke:#181818;stroke-width:1.0;"/><polygon fill="#181818" points="117.26,336.88,122.5262,328.5573,117.9871,331.9331,114.6112,327.394,117.26,336.88" style="stroke:#181818;stroke-width:1.0;"/><text fill="#000000" font-family="sans-serif" font-size="13" lengthAdjust="spacing" textLength="72" x="128.986" y="325.8613">exoSkeleton</text></g><!--link ToggleMenuFollow to TMP_Text--><g id="link_ToggleMenuFollow_TMP_Text"><path codeLine="11" d="M161.25,260.95 C182.16,285.83 204.99,312.99 221.45,332.57 " fill="none" id="ToggleMenuFollow-to-TMP_Text" style="stroke:#181818;stroke-width:1.0;"/><polygon fill="#181818" points="225.07,336.88,222.3466,327.4152,221.855,333.0506,216.2196,332.5591,225.07,336.88" style="stroke:#181818;stroke-width:1.0;"/><text fill="#000000" font-family="sans-serif" font-size="13" lengthAdjust="spacing" textLength="49" x="226.3692" y="325.8613">tmpText</text></g><!--reverse link MonoBehaviour to ControlEkoSkeleton--><g id="link_MonoBehaviour_ControlEkoSkeleton"><path codeLine="16" d="M572.95,61.14 C534.83,75.42 489.95,94.06 451.5,115 C430.18,126.61 408.09,141.51 389.16,155.3 " fill="none" id="MonoBehaviour-backto-ControlEkoSkeleton" style="stroke:#181818;stroke-width:1.0;"/><polygon fill="none" points="570.72,54.5,591.91,54.18,575.55,67.64,570.72,54.5" style="stroke:#181818;stroke-width:1.0;"/></g><!--reverse link MonoBehaviour to SliderAngleDisplay--><g id="link_MonoBehaviour_SliderAngleDisplay"><path codeLine="19" d="M630.85,71.53 C608.89,102.93 578.93,145.77 560.69,171.85 " fill="none" id="MonoBehaviour-backto-SliderAngleDisplay" style="stroke:#181818;stroke-width:1.0;"/><polygon fill="none" points="625.21,67.39,642.41,55.01,636.68,75.41,625.21,67.39" style="stroke:#181818;stroke-width:1.0;"/></g><!--reverse link MonoBehaviour to ExoGrabApple--><g id="link_MonoBehaviour_ExoGrabApple"><path codeLine="29" d="M686.33,71.44 C695.57,84.54 706.22,99.63 716.83,114.68 " fill="none" id="MonoBehaviour-backto-ExoGrabApple" style="stroke:#181818;stroke-width:1.0;"/><polygon fill="none" points="680.54,75.39,674.73,55.01,691.98,67.31,680.54,75.39" style="stroke:#181818;stroke-width:1.0;"/></g><!--reverse link MonoBehaviour to EnableThumbCollider--><g id="link_MonoBehaviour_EnableThumbCollider"><path codeLine="32" d="M744.51,52.39 C794.45,66.17 857.55,86.98 909.5,115 C938.24,130.5 967.05,154.34 986.5,171.97 " fill="none" id="MonoBehaviour-backto-EnableThumbCollider" style="stroke:#181818;stroke-width:1.0;"/><polygon fill="none" points="742.55,59.11,725.03,47.18,746.16,45.58,742.55,59.11" style="stroke:#181818;stroke-width:1.0;"/></g><!--link EnableThumbCollider to Collider--><g id="link_EnableThumbCollider_Collider"><path codeLine="33" d="M1010.5,220.01 C1010.5,249.29 1010.5,299.87 1010.5,331.55 " fill="none" id="EnableThumbCollider-to-Collider" style="stroke:#181818;stroke-width:1.0;"/><polygon fill="#181818" points="1010.5,336.85,1014.5,327.85,1010.5,331.85,1006.5,327.85,1010.5,336.85" style="stroke:#181818;stroke-width:1.0;"/><text fill="#000000" font-family="sans-serif" font-size="13" lengthAdjust="spacing" textLength="85" x="914.6094" y="325.8236">thumbCollider</text></g><!--reverse link MonoBehaviour to ExoMovements--><g id="link_MonoBehaviour_ExoMovements"><path codeLine="41" d="M745.21,38.68 C838.41,47.95 989.7,69.07 1112.5,115 C1124.75,119.58 1137.15,125.26 1149.22,131.45 " fill="none" id="MonoBehaviour-backto-ExoMovements" style="stroke:#181818;stroke-width:1.0;"/><polygon fill="none" points="744.35,45.63,725.1,36.78,745.67,31.69,744.35,45.63" style="stroke:#181818;stroke-width:1.0;"/></g><!--SRC=[bLF9Ri8m4BtdAonEhIfGoz93rLPYAr8bH0MvLoPCWi7nf8x3qkNVwooO04QqEIMPDs_ytXjxdCOnSJ48E0n192_8EQx9bqFqSqFyxBF7OaM51-I1-1of8a_ahjRo2ymAf68UvIFVZq7jC4LnZf9zeb37PKrnkoF8f-UJhwurOeLiTb3h2phbCDiNVvmX2kp0dAuO9f8yVbUh9ogS4rdLwZEfXFgxGWOqXD5q0Puw0uCDJfR0GQ7u0rg5aGiRLI7kyEqzVNEypDckrYwHzvU6p7XRIDjWN5JisezziKe_7LFCdt0s0zaMcaYd676wrVEj5AV8WaAVS23fj1r57CpX5yY4ghjK1g2odbAm3PDiXchOKStM0QffHzqVShNigFeXQeWhw2MIAgRjBk-iWKKqYQ43QWqWNjEMkBoOjOPPJSc206IgVm8V2UXBS269ibix0xFjTUT9EEtgC5ERpuLWWJgszdpdohygn3IOs58VzBPhSRlOGhePepesPXz5oCHnlQX8qBVNPkf_BHsdH3aWjrGnoldsigr6pIy0]--></g></svg>