<?xml version="1.0" encoding="us-ascii" standalone="no"?><svg xmlns="http://www.w3.org/2000/svg" xmlns:xlink="http://www.w3.org/1999/xlink" contentStyleType="text/css" height="620px" preserveAspectRatio="none" style="width:1745px;height:620px;background:#FFFFFF;" version="1.1" viewBox="0 0 1745 620" width="1745px" zoomAndPan="magnify"><defs/><g><!--class ToggleMenuFollow--><g id="elem_ToggleMenuFollow"><rect codeLine="1" fill="#F1F1F1" height="129.4844" id="ToggleMenuFollow" rx="2.5" ry="2.5" style="stroke:#181818;stroke-width:0.5;" width="201" x="7" y="245.5"/><ellipse cx="44.95" cy="261.5" fill="#ADD1B2" rx="11" ry="11" style="stroke:#181818;stroke-width:1.0;"/><path d="M44.8875,257.3281 Q44.1375,257.3281 43.575,257.625 Q43.0125,257.9063 42.6219,258.4375 Q42.2313,258.9688 42.0281,259.75 Q41.8406,260.5156 41.8406,261.4688 Q41.8406,262.4375 42.0125,263.2031 Q42.2,263.9531 42.5594,264.4688 Q42.9344,264.9844 43.5125,265.2656 Q44.0906,265.5313 44.8875,265.5313 Q45.6219,265.5313 46.3563,265.3594 Q47.1063,265.1875 47.9813,264.8906 L47.9813,267.0469 Q47.575,267.2031 47.1844,267.3281 Q46.7938,267.4375 46.3875,267.5156 Q45.9813,267.5938 45.5594,267.625 Q45.1375,267.6719 44.6375,267.6719 Q43.2313,267.6719 42.2,267.2188 Q41.1844,266.7656 40.5125,265.9531 Q39.8406,265.1406 39.5125,264 Q39.1844,262.8438 39.1844,261.4531 Q39.1844,260.0781 39.5594,258.9219 Q39.9344,257.7656 40.6531,256.9375 Q41.3719,256.1094 42.4344,255.6563 Q43.4969,255.1875 44.8875,255.1875 Q45.7938,255.1875 46.7,255.4219 Q47.6063,255.6406 48.4344,256.0469 L47.6063,258.1406 Q46.9188,257.8125 46.2313,257.5781 Q45.5438,257.3281 44.8875,257.3281 Z " fill="#000000"/><text fill="#000000" font-family="sans-serif" font-size="14" lengthAdjust="spacing" textLength="118" x="64.05" y="266.3467">ToggleMenuFollow</text><line style="stroke:#181818;stroke-width:0.5;" x1="8" x2="207" y1="277.5" y2="277.5"/><ellipse cx="18" cy="291.1484" fill="none" rx="3" ry="3" style="stroke:#038048;stroke-width:1.0;"/><text fill="#000000" font-family="sans-serif" font-size="14" lengthAdjust="spacing" textLength="175" x="27" y="294.4951">followDistance : float = 1.5f</text><ellipse cx="18" cy="307.4453" fill="none" rx="3" ry="3" style="stroke:#038048;stroke-width:1.0;"/><text fill="#000000" font-family="sans-serif" font-size="14" lengthAdjust="spacing" textLength="127" x="27" y="310.792">verticalOffset : float</text><ellipse cx="18" cy="323.7422" fill="none" rx="3" ry="3" style="stroke:#038048;stroke-width:1.0;"/><text fill="#000000" font-family="sans-serif" font-size="14" lengthAdjust="spacing" textLength="173" x="27" y="327.0889">horizontalOffset : float = 0f</text><line style="stroke:#181818;stroke-width:0.5;" x1="8" x2="207" y1="334.3906" y2="334.3906"/><ellipse cx="18" cy="348.0391" fill="#84BE84" rx="3" ry="3" style="stroke:#038048;stroke-width:1.0;"/><text fill="#000000" font-family="sans-serif" font-size="14" lengthAdjust="spacing" textLength="129" x="27" y="351.3857">ToggleFollow() : void</text><ellipse cx="18" cy="364.3359" fill="#84BE84" rx="3" ry="3" style="stroke:#038048;stroke-width:1.0;"/><text fill="#000000" font-family="sans-serif" font-size="14" lengthAdjust="spacing" textLength="138" x="27" y="367.6826">ToggleEnabled() : void</text></g><!--class MonoBehaviour--><g id="elem_MonoBehaviour"><rect fill="#F1F1F1" height="48" id="MonoBehaviour" rx="2.5" ry="2.5" style="stroke:#181818;stroke-width:0.5;" width="133" x="707" y="7"/><ellipse cx="722" cy="23" fill="#ADD1B2" rx="11" ry="11" style="stroke:#181818;stroke-width:1.0;"/><path d="M721.9375,18.8281 Q721.1875,18.8281 720.625,19.125 Q720.0625,19.4063 719.6719,19.9375 Q719.2813,20.4688 719.0781,21.25 Q718.8906,22.0156 718.8906,22.9688 Q718.8906,23.9375 719.0625,24.7031 Q719.25,25.4531 719.6094,25.9688 Q719.9844,26.4844 720.5625,26.7656 Q721.1406,27.0313 721.9375,27.0313 Q722.6719,27.0313 723.4063,26.8594 Q724.1563,26.6875 725.0313,26.3906 L725.0313,28.5469 Q724.625,28.7031 724.2344,28.8281 Q723.8438,28.9375 723.4375,29.0156 Q723.0313,29.0938 722.6094,29.125 Q722.1875,29.1719 721.6875,29.1719 Q720.2813,29.1719 719.25,28.7188 Q718.2344,28.2656 717.5625,27.4531 Q716.8906,26.6406 716.5625,25.5 Q716.2344,24.3438 716.2344,22.9531 Q716.2344,21.5781 716.6094,20.4219 Q716.9844,19.2656 717.7031,18.4375 Q718.4219,17.6094 719.4844,17.1563 Q720.5469,16.6875 721.9375,16.6875 Q722.8438,16.6875 723.75,16.9219 Q724.6563,17.1406 725.4844,17.5469 L724.6563,19.6406 Q723.9688,19.3125 723.2813,19.0781 Q722.5938,18.8281 721.9375,18.8281 Z " fill="#000000"/><text fill="#000000" font-family="sans-serif" font-size="14" lengthAdjust="spacing" textLength="101" x="736" y="27.8467">MonoBehaviour</text><line style="stroke:#181818;stroke-width:0.5;" x1="708" x2="839" y1="39" y2="39"/><line style="stroke:#181818;stroke-width:0.5;" x1="708" x2="839" y1="47" y2="47"/></g><!--class GameObject--><g id="elem_GameObject"><rect fill="#F1F1F1" height="48" id="GameObject" rx="2.5" ry="2.5" style="stroke:#181818;stroke-width:0.5;" width="111" x="52" y="565"/><ellipse cx="67" cy="581" fill="#ADD1B2" rx="11" ry="11" style="stroke:#181818;stroke-width:1.0;"/><path d="M66.9375,576.8281 Q66.1875,576.8281 65.625,577.125 Q65.0625,577.4063 64.6719,577.9375 Q64.2813,578.4688 64.0781,579.25 Q63.8906,580.0156 63.8906,580.9688 Q63.8906,581.9375 64.0625,582.7031 Q64.25,583.4531 64.6094,583.9688 Q64.9844,584.4844 65.5625,584.7656 Q66.1406,585.0313 66.9375,585.0313 Q67.6719,585.0313 68.4063,584.8594 Q69.1563,584.6875 70.0313,584.3906 L70.0313,586.5469 Q69.625,586.7031 69.2344,586.8281 Q68.8438,586.9375 68.4375,587.0156 Q68.0313,587.0938 67.6094,587.125 Q67.1875,587.1719 66.6875,587.1719 Q65.2813,587.1719 64.25,586.7188 Q63.2344,586.2656 62.5625,585.4531 Q61.8906,584.6406 61.5625,583.5 Q61.2344,582.3438 61.2344,580.9531 Q61.2344,579.5781 61.6094,578.4219 Q61.9844,577.2656 62.7031,576.4375 Q63.4219,575.6094 64.4844,575.1563 Q65.5469,574.6875 66.9375,574.6875 Q67.8438,574.6875 68.75,574.9219 Q69.6563,575.1406 70.4844,575.5469 L69.6563,577.6406 Q68.9688,577.3125 68.2813,577.0781 Q67.5938,576.8281 66.9375,576.8281 Z " fill="#000000"/><text fill="#000000" font-family="sans-serif" font-size="14" lengthAdjust="spacing" textLength="79" x="81" y="585.8467">GameObject</text><line style="stroke:#181818;stroke-width:0.5;" x1="53" x2="162" y1="597" y2="597"/><line style="stroke:#181818;stroke-width:0.5;" x1="53" x2="162" y1="605" y2="605"/></g><!--class TMP_Text--><g id="elem_TMP_Text"><rect fill="#F1F1F1" height="48" id="TMP_Text" rx="2.5" ry="2.5" style="stroke:#181818;stroke-width:0.5;" width="92" x="198.5" y="565"/><ellipse cx="213.5" cy="581" fill="#ADD1B2" rx="11" ry="11" style="stroke:#181818;stroke-width:1.0;"/><path d="M213.4375,576.8281 Q212.6875,576.8281 212.125,577.125 Q211.5625,577.4063 211.1719,577.9375 Q210.7813,578.4688 210.5781,579.25 Q210.3906,580.0156 210.3906,580.9688 Q210.3906,581.9375 210.5625,582.7031 Q210.75,583.4531 211.1094,583.9688 Q211.4844,584.4844 212.0625,584.7656 Q212.6406,585.0313 213.4375,585.0313 Q214.1719,585.0313 214.9063,584.8594 Q215.6563,584.6875 216.5313,584.3906 L216.5313,586.5469 Q216.125,586.7031 215.7344,586.8281 Q215.3438,586.9375 214.9375,587.0156 Q214.5313,587.0938 214.1094,587.125 Q213.6875,587.1719 213.1875,587.1719 Q211.7813,587.1719 210.75,586.7188 Q209.7344,586.2656 209.0625,585.4531 Q208.3906,584.6406 208.0625,583.5 Q207.7344,582.3438 207.7344,580.9531 Q207.7344,579.5781 208.1094,578.4219 Q208.4844,577.2656 209.2031,576.4375 Q209.9219,575.6094 210.9844,575.1563 Q212.0469,574.6875 213.4375,574.6875 Q214.3438,574.6875 215.25,574.9219 Q216.1563,575.1406 216.9844,575.5469 L216.1563,577.6406 Q215.4688,577.3125 214.7813,577.0781 Q214.0938,576.8281 213.4375,576.8281 Z " fill="#000000"/><text fill="#000000" font-family="sans-serif" font-size="14" lengthAdjust="spacing" textLength="60" x="227.5" y="585.8467">TMP_Text</text><line style="stroke:#181818;stroke-width:0.5;" x1="199.5" x2="289.5" y1="597" y2="597"/><line style="stroke:#181818;stroke-width:0.5;" x1="199.5" x2="289.5" y1="605" y2="605"/></g><!--class ControlEkoSkeleton--><g id="elem_ControlEkoSkeleton"><rect codeLine="12" fill="#F1F1F1" height="80.5938" id="ControlEkoSkeleton" rx="2.5" ry="2.5" style="stroke:#181818;stroke-width:0.5;" width="190" x="243.5" y="269.5"/><ellipse cx="273.8" cy="285.5" fill="#ADD1B2" rx="11" ry="11" style="stroke:#181818;stroke-width:1.0;"/><path d="M273.7375,281.3281 Q272.9875,281.3281 272.425,281.625 Q271.8625,281.9063 271.4719,282.4375 Q271.0813,282.9688 270.8781,283.75 Q270.6906,284.5156 270.6906,285.4688 Q270.6906,286.4375 270.8625,287.2031 Q271.05,287.9531 271.4094,288.4688 Q271.7844,288.9844 272.3625,289.2656 Q272.9406,289.5313 273.7375,289.5313 Q274.4719,289.5313 275.2063,289.3594 Q275.9563,289.1875 276.8313,288.8906 L276.8313,291.0469 Q276.425,291.2031 276.0344,291.3281 Q275.6438,291.4375 275.2375,291.5156 Q274.8313,291.5938 274.4094,291.625 Q273.9875,291.6719 273.4875,291.6719 Q272.0813,291.6719 271.05,291.2188 Q270.0344,290.7656 269.3625,289.9531 Q268.6906,289.1406 268.3625,288 Q268.0344,286.8438 268.0344,285.4531 Q268.0344,284.0781 268.4094,282.9219 Q268.7844,281.7656 269.5031,280.9375 Q270.2219,280.1094 271.2844,279.6563 Q272.3469,279.1875 273.7375,279.1875 Q274.6438,279.1875 275.55,279.4219 Q276.4563,279.6406 277.2844,280.0469 L276.4563,282.1406 Q275.7688,281.8125 275.0813,281.5781 Q274.3938,281.3281 273.7375,281.3281 Z " fill="#000000"/><text fill="#000000" font-family="sans-serif" font-size="14" lengthAdjust="spacing" textLength="124" x="291.2" y="290.3467">ControlEkoSkeleton</text><line style="stroke:#181818;stroke-width:0.5;" x1="244.5" x2="432.5" y1="301.5" y2="301.5"/><line style="stroke:#181818;stroke-width:0.5;" x1="244.5" x2="432.5" y1="309.5" y2="309.5"/><ellipse cx="254.5" cy="323.1484" fill="#84BE84" rx="3" ry="3" style="stroke:#038048;stroke-width:1.0;"/><text fill="#000000" font-family="sans-serif" font-size="14" lengthAdjust="spacing" textLength="164" x="263.5" y="326.4951">ToggleExoskeleton() : void</text><ellipse cx="254.5" cy="339.4453" fill="#84BE84" rx="3" ry="3" style="stroke:#038048;stroke-width:1.0;"/><text fill="#000000" font-family="sans-serif" font-size="14" lengthAdjust="spacing" textLength="129" x="263.5" y="342.792">ToggleFollow() : void</text></g><!--class SliderAngleDisplay--><g id="elem_SliderAngleDisplay"><rect codeLine="17" fill="#F1F1F1" height="48" id="SliderAngleDisplay" rx="2.5" ry="2.5" style="stroke:#181818;stroke-width:0.5;" width="151" x="469" y="286"/><ellipse cx="484" cy="302" fill="#ADD1B2" rx="11" ry="11" style="stroke:#181818;stroke-width:1.0;"/><path d="M483.9375,297.8281 Q483.1875,297.8281 482.625,298.125 Q482.0625,298.4063 481.6719,298.9375 Q481.2813,299.4688 481.0781,300.25 Q480.8906,301.0156 480.8906,301.9688 Q480.8906,302.9375 481.0625,303.7031 Q481.25,304.4531 481.6094,304.9688 Q481.9844,305.4844 482.5625,305.7656 Q483.1406,306.0313 483.9375,306.0313 Q484.6719,306.0313 485.4063,305.8594 Q486.1563,305.6875 487.0313,305.3906 L487.0313,307.5469 Q486.625,307.7031 486.2344,307.8281 Q485.8438,307.9375 485.4375,308.0156 Q485.0313,308.0938 484.6094,308.125 Q484.1875,308.1719 483.6875,308.1719 Q482.2813,308.1719 481.25,307.7188 Q480.2344,307.2656 479.5625,306.4531 Q478.8906,305.6406 478.5625,304.5 Q478.2344,303.3438 478.2344,301.9531 Q478.2344,300.5781 478.6094,299.4219 Q478.9844,298.2656 479.7031,297.4375 Q480.4219,296.6094 481.4844,296.1563 Q482.5469,295.6875 483.9375,295.6875 Q484.8438,295.6875 485.75,295.9219 Q486.6563,296.1406 487.4844,296.5469 L486.6563,298.6406 Q485.9688,298.3125 485.2813,298.0781 Q484.5938,297.8281 483.9375,297.8281 Z " fill="#000000"/><text fill="#000000" font-family="sans-serif" font-size="14" lengthAdjust="spacing" textLength="119" x="498" y="306.8467">SliderAngleDisplay</text><line style="stroke:#181818;stroke-width:0.5;" x1="470" x2="619" y1="318" y2="318"/><line style="stroke:#181818;stroke-width:0.5;" x1="470" x2="619" y1="326" y2="326"/></g><!--class ExoGrabApple--><g id="elem_ExoGrabApple"><rect codeLine="20" fill="#F1F1F1" height="162.0781" id="ExoGrabApple" rx="2.5" ry="2.5" style="stroke:#181818;stroke-width:0.5;" width="236" x="655.5" y="229"/><ellipse cx="724.25" cy="245" fill="#ADD1B2" rx="11" ry="11" style="stroke:#181818;stroke-width:1.0;"/><path d="M724.1875,240.8281 Q723.4375,240.8281 722.875,241.125 Q722.3125,241.4063 721.9219,241.9375 Q721.5313,242.4688 721.3281,243.25 Q721.1406,244.0156 721.1406,244.9688 Q721.1406,245.9375 721.3125,246.7031 Q721.5,247.4531 721.8594,247.9688 Q722.2344,248.4844 722.8125,248.7656 Q723.3906,249.0313 724.1875,249.0313 Q724.9219,249.0313 725.6563,248.8594 Q726.4063,248.6875 727.2813,248.3906 L727.2813,250.5469 Q726.875,250.7031 726.4844,250.8281 Q726.0938,250.9375 725.6875,251.0156 Q725.2813,251.0938 724.8594,251.125 Q724.4375,251.1719 723.9375,251.1719 Q722.5313,251.1719 721.5,250.7188 Q720.4844,250.2656 719.8125,249.4531 Q719.1406,248.6406 718.8125,247.5 Q718.4844,246.3438 718.4844,244.9531 Q718.4844,243.5781 718.8594,242.4219 Q719.2344,241.2656 719.9531,240.4375 Q720.6719,239.6094 721.7344,239.1563 Q722.7969,238.6875 724.1875,238.6875 Q725.0938,238.6875 726,238.9219 Q726.9063,239.1406 727.7344,239.5469 L726.9063,241.6406 Q726.2188,241.3125 725.5313,241.0781 Q724.8438,240.8281 724.1875,240.8281 Z " fill="#000000"/><text fill="#000000" font-family="sans-serif" font-size="14" lengthAdjust="spacing" textLength="90" x="744.75" y="249.8467">ExoGrabApple</text><line style="stroke:#181818;stroke-width:0.5;" x1="656.5" x2="890.5" y1="261" y2="261"/><ellipse cx="666.5" cy="274.6484" fill="none" rx="3" ry="3" style="stroke:#038048;stroke-width:1.0;"/><text fill="#000000" font-family="sans-serif" font-size="14" lengthAdjust="spacing" textLength="191" x="675.5" y="277.9951">joint2TargetAngle : float = 30f</text><ellipse cx="666.5" cy="290.9453" fill="none" rx="3" ry="3" style="stroke:#038048;stroke-width:1.0;"/><text fill="#000000" font-family="sans-serif" font-size="14" lengthAdjust="spacing" textLength="191" x="675.5" y="294.292">joint3TargetAngle : float = 45f</text><ellipse cx="666.5" cy="307.2422" fill="none" rx="3" ry="3" style="stroke:#038048;stroke-width:1.0;"/><text fill="#000000" font-family="sans-serif" font-size="14" lengthAdjust="spacing" textLength="191" x="675.5" y="310.5889">joint4TargetAngle : float = 60f</text><ellipse cx="666.5" cy="323.5391" fill="none" rx="3" ry="3" style="stroke:#038048;stroke-width:1.0;"/><text fill="#000000" font-family="sans-serif" font-size="14" lengthAdjust="spacing" textLength="191" x="675.5" y="326.8857">joint5TargetAngle : float = 20f</text><ellipse cx="666.5" cy="339.8359" fill="none" rx="3" ry="3" style="stroke:#038048;stroke-width:1.0;"/><text fill="#000000" font-family="sans-serif" font-size="14" lengthAdjust="spacing" textLength="202" x="675.5" y="343.1826">jointMoveDuration : float = 1.0f</text><ellipse cx="666.5" cy="356.1328" fill="none" rx="3" ry="3" style="stroke:#038048;stroke-width:1.0;"/><text fill="#000000" font-family="sans-serif" font-size="14" lengthAdjust="spacing" textLength="210" x="675.5" y="359.4795">pauseBetweenJoints : float = 0.3f</text><line style="stroke:#181818;stroke-width:0.5;" x1="656.5" x2="890.5" y1="366.7813" y2="366.7813"/><ellipse cx="666.5" cy="380.4297" fill="#84BE84" rx="3" ry="3" style="stroke:#038048;stroke-width:1.0;"/><text fill="#000000" font-family="sans-serif" font-size="14" lengthAdjust="spacing" textLength="184" x="675.5" y="383.7764">TriggerGrabSequence() : void</text></g><!--class EnableThumbCollider--><g id="elem_EnableThumbCollider"><rect codeLine="30" fill="#F1F1F1" height="48" id="EnableThumbCollider" rx="2.5" ry="2.5" style="stroke:#181818;stroke-width:0.5;" width="168" x="926.5" y="286"/><ellipse cx="941.5" cy="302" fill="#ADD1B2" rx="11" ry="11" style="stroke:#181818;stroke-width:1.0;"/><path d="M941.4375,297.8281 Q940.6875,297.8281 940.125,298.125 Q939.5625,298.4063 939.1719,298.9375 Q938.7813,299.4688 938.5781,300.25 Q938.3906,301.0156 938.3906,301.9688 Q938.3906,302.9375 938.5625,303.7031 Q938.75,304.4531 939.1094,304.9688 Q939.4844,305.4844 940.0625,305.7656 Q940.6406,306.0313 941.4375,306.0313 Q942.1719,306.0313 942.9063,305.8594 Q943.6563,305.6875 944.5313,305.3906 L944.5313,307.5469 Q944.125,307.7031 943.7344,307.8281 Q943.3438,307.9375 942.9375,308.0156 Q942.5313,308.0938 942.1094,308.125 Q941.6875,308.1719 941.1875,308.1719 Q939.7813,308.1719 938.75,307.7188 Q937.7344,307.2656 937.0625,306.4531 Q936.3906,305.6406 936.0625,304.5 Q935.7344,303.3438 935.7344,301.9531 Q935.7344,300.5781 936.1094,299.4219 Q936.4844,298.2656 937.2031,297.4375 Q937.9219,296.6094 938.9844,296.1563 Q940.0469,295.6875 941.4375,295.6875 Q942.3438,295.6875 943.25,295.9219 Q944.1563,296.1406 944.9844,296.5469 L944.1563,298.6406 Q943.4688,298.3125 942.7813,298.0781 Q942.0938,297.8281 941.4375,297.8281 Z " fill="#000000"/><text fill="#000000" font-family="sans-serif" font-size="14" lengthAdjust="spacing" textLength="136" x="955.5" y="306.8467">EnableThumbCollider</text><line style="stroke:#181818;stroke-width:0.5;" x1="927.5" x2="1093.5" y1="318" y2="318"/><line style="stroke:#181818;stroke-width:0.5;" x1="927.5" x2="1093.5" y1="326" y2="326"/></g><!--class Collider--><g id="elem_Collider"><rect fill="#F1F1F1" height="48" id="Collider" rx="2.5" ry="2.5" style="stroke:#181818;stroke-width:0.5;" width="82" x="969.5" y="565"/><ellipse cx="984.5" cy="581" fill="#ADD1B2" rx="11" ry="11" style="stroke:#181818;stroke-width:1.0;"/><path d="M984.4375,576.8281 Q983.6875,576.8281 983.125,577.125 Q982.5625,577.4063 982.1719,577.9375 Q981.7813,578.4688 981.5781,579.25 Q981.3906,580.0156 981.3906,580.9688 Q981.3906,581.9375 981.5625,582.7031 Q981.75,583.4531 982.1094,583.9688 Q982.4844,584.4844 983.0625,584.7656 Q983.6406,585.0313 984.4375,585.0313 Q985.1719,585.0313 985.9063,584.8594 Q986.6563,584.6875 987.5313,584.3906 L987.5313,586.5469 Q987.125,586.7031 986.7344,586.8281 Q986.3438,586.9375 985.9375,587.0156 Q985.5313,587.0938 985.1094,587.125 Q984.6875,587.1719 984.1875,587.1719 Q982.7813,587.1719 981.75,586.7188 Q980.7344,586.2656 980.0625,585.4531 Q979.3906,584.6406 979.0625,583.5 Q978.7344,582.3438 978.7344,580.9531 Q978.7344,579.5781 979.1094,578.4219 Q979.4844,577.2656 980.2031,576.4375 Q980.9219,575.6094 981.9844,575.1563 Q983.0469,574.6875 984.4375,574.6875 Q985.3438,574.6875 986.25,574.9219 Q987.1563,575.1406 987.9844,575.5469 L987.1563,577.6406 Q986.4688,577.3125 985.7813,577.0781 Q985.0938,576.8281 984.4375,576.8281 Z " fill="#000000"/><text fill="#000000" font-family="sans-serif" font-size="14" lengthAdjust="spacing" textLength="50" x="998.5" y="585.8467">Collider</text><line style="stroke:#181818;stroke-width:0.5;" x1="970.5" x2="1050.5" y1="597" y2="597"/><line style="stroke:#181818;stroke-width:0.5;" x1="970.5" x2="1050.5" y1="605" y2="605"/></g><!--class GameManager--><g id="elem_GameManager"><rect codeLine="34" fill="#F1F1F1" height="390.2344" id="GameManager" rx="2.5" ry="2.5" style="stroke:#181818;stroke-width:0.5;" width="319" x="1130" y="115"/><ellipse cx="1238.75" cy="131" fill="#ADD1B2" rx="11" ry="11" style="stroke:#181818;stroke-width:1.0;"/><path d="M1238.6875,126.8281 Q1237.9375,126.8281 1237.375,127.125 Q1236.8125,127.4063 1236.4219,127.9375 Q1236.0313,128.4688 1235.8281,129.25 Q1235.6406,130.0156 1235.6406,130.9688 Q1235.6406,131.9375 1235.8125,132.7031 Q1236,133.4531 1236.3594,133.9688 Q1236.7344,134.4844 1237.3125,134.7656 Q1237.8906,135.0313 1238.6875,135.0313 Q1239.4219,135.0313 1240.1563,134.8594 Q1240.9063,134.6875 1241.7813,134.3906 L1241.7813,136.5469 Q1241.375,136.7031 1240.9844,136.8281 Q1240.5938,136.9375 1240.1875,137.0156 Q1239.7813,137.0938 1239.3594,137.125 Q1238.9375,137.1719 1238.4375,137.1719 Q1237.0313,137.1719 1236,136.7188 Q1234.9844,136.2656 1234.3125,135.4531 Q1233.6406,134.6406 1233.3125,133.5 Q1232.9844,132.3438 1232.9844,130.9531 Q1232.9844,129.5781 1233.3594,128.4219 Q1233.7344,127.2656 1234.4531,126.4375 Q1235.1719,125.6094 1236.2344,125.1563 Q1237.2969,124.6875 1238.6875,124.6875 Q1239.5938,124.6875 1240.5,124.9219 Q1241.4063,125.1406 1242.2344,125.5469 L1241.4063,127.6406 Q1240.7188,127.3125 1240.0313,127.0781 Q1239.3438,126.8281 1238.6875,126.8281 Z " fill="#000000"/><text fill="#000000" font-family="sans-serif" font-size="14" lengthAdjust="spacing" textLength="93" x="1259.25" y="135.8467">GameManager</text><line style="stroke:#181818;stroke-width:0.5;" x1="1131" x2="1448" y1="147" y2="147"/><line style="stroke:#181818;stroke-width:0.5;" x1="1131" x2="1448" y1="155" y2="155"/><ellipse cx="1141" cy="168.6484" fill="#84BE84" rx="3" ry="3" style="stroke:#038048;stroke-width:1.0;"/><text fill="#000000" font-family="sans-serif" font-size="14" lengthAdjust="spacing" textLength="211" x="1150" y="171.9951">GetLeftPartPosition() : Transform</text><ellipse cx="1141" cy="184.9453" fill="#84BE84" rx="3" ry="3" style="stroke:#038048;stroke-width:1.0;"/><text fill="#000000" font-family="sans-serif" font-size="14" lengthAdjust="spacing" textLength="218" x="1150" y="188.292">GetRightPartPosition() : Transform</text><ellipse cx="1141" cy="201.2422" fill="#84BE84" rx="3" ry="3" style="stroke:#038048;stroke-width:1.0;"/><text fill="#000000" font-family="sans-serif" font-size="14" lengthAdjust="spacing" textLength="220" x="1150" y="204.5889">GetFrontPartPosition() : Transform</text><ellipse cx="1141" cy="217.5391" fill="#84BE84" rx="3" ry="3" style="stroke:#038048;stroke-width:1.0;"/><text fill="#000000" font-family="sans-serif" font-size="14" lengthAdjust="spacing" textLength="215" x="1150" y="220.8857">GetBackPartPosition() : Transform</text><ellipse cx="1141" cy="233.8359" fill="#84BE84" rx="3" ry="3" style="stroke:#038048;stroke-width:1.0;"/><text fill="#000000" font-family="sans-serif" font-size="14" lengthAdjust="spacing" textLength="246" x="1150" y="237.1826">GetConveyorPartPosition() : Transform</text><ellipse cx="1141" cy="250.1328" fill="#84BE84" rx="3" ry="3" style="stroke:#038048;stroke-width:1.0;"/><text fill="#000000" font-family="sans-serif" font-size="14" lengthAdjust="spacing" textLength="293" x="1150" y="253.4795">GetConveyorDownScrewPosition() : Transform</text><ellipse cx="1141" cy="266.4297" fill="#84BE84" rx="3" ry="3" style="stroke:#038048;stroke-width:1.0;"/><text fill="#000000" font-family="sans-serif" font-size="14" lengthAdjust="spacing" textLength="210" x="1150" y="269.7764">GetUpPartsPosition() : Transform</text><ellipse cx="1141" cy="282.7266" fill="#84BE84" rx="3" ry="3" style="stroke:#038048;stroke-width:1.0;"/><text fill="#000000" font-family="sans-serif" font-size="14" lengthAdjust="spacing" textLength="200" x="1150" y="286.0732">GetConveyorJos() : GameObject</text><ellipse cx="1141" cy="299.0234" fill="#84BE84" rx="3" ry="3" style="stroke:#038048;stroke-width:1.0;"/><text fill="#000000" font-family="sans-serif" font-size="14" lengthAdjust="spacing" textLength="267" x="1150" y="302.3701">GetConveyorLateralStanga() : GameObject</text><ellipse cx="1141" cy="315.3203" fill="#84BE84" rx="3" ry="3" style="stroke:#038048;stroke-width:1.0;"/><text fill="#000000" font-family="sans-serif" font-size="14" lengthAdjust="spacing" textLength="277" x="1150" y="318.667">GetConveyorLateralDreapta() : GameObject</text><ellipse cx="1141" cy="331.6172" fill="#84BE84" rx="3" ry="3" style="stroke:#038048;stroke-width:1.0;"/><text fill="#000000" font-family="sans-serif" font-size="14" lengthAdjust="spacing" textLength="203" x="1150" y="334.9639">GetConveyorSus() : GameObject</text><ellipse cx="1141" cy="347.9141" fill="#84BE84" rx="3" ry="3" style="stroke:#038048;stroke-width:1.0;"/><text fill="#000000" font-family="sans-serif" font-size="14" lengthAdjust="spacing" textLength="237" x="1150" y="351.2607">GetConveyorPrincipal() : GameObject</text><ellipse cx="1141" cy="364.2109" fill="#84BE84" rx="3" ry="3" style="stroke:#038048;stroke-width:1.0;"/><text fill="#000000" font-family="sans-serif" font-size="14" lengthAdjust="spacing" textLength="189" x="1150" y="367.5576">GetParteaFata() : GameObject</text><ellipse cx="1141" cy="380.5078" fill="#84BE84" rx="3" ry="3" style="stroke:#038048;stroke-width:1.0;"/><text fill="#000000" font-family="sans-serif" font-size="14" lengthAdjust="spacing" textLength="198" x="1150" y="383.8545">GetParteaSpate() : GameObject</text><ellipse cx="1141" cy="396.8047" fill="#84BE84" rx="3" ry="3" style="stroke:#038048;stroke-width:1.0;"/><text fill="#000000" font-family="sans-serif" font-size="14" lengthAdjust="spacing" textLength="243" x="1150" y="400.1514">GetSurubOrizontalFata() : GameObject</text><ellipse cx="1141" cy="413.1016" fill="#84BE84" rx="3" ry="3" style="stroke:#038048;stroke-width:1.0;"/><text fill="#000000" font-family="sans-serif" font-size="14" lengthAdjust="spacing" textLength="252" x="1150" y="416.4482">GetSurubOrizontalSpate() : GameObject</text><ellipse cx="1141" cy="429.3984" fill="#84BE84" rx="3" ry="3" style="stroke:#038048;stroke-width:1.0;"/><text fill="#000000" font-family="sans-serif" font-size="14" lengthAdjust="spacing" textLength="207" x="1150" y="432.7451">GetSurubVertical() : GameObject</text><ellipse cx="1141" cy="445.6953" fill="#84BE84" rx="3" ry="3" style="stroke:#038048;stroke-width:1.0;"/><text fill="#000000" font-family="sans-serif" font-size="14" lengthAdjust="spacing" textLength="255" x="1150" y="449.042">GetParteaLateralaStanga() : GameObject</text><ellipse cx="1141" cy="461.9922" fill="#84BE84" rx="3" ry="3" style="stroke:#038048;stroke-width:1.0;"/><text fill="#000000" font-family="sans-serif" font-size="14" lengthAdjust="spacing" textLength="265" x="1150" y="465.3389">GetParteaLateralaDreapta() : GameObject</text><ellipse cx="1141" cy="478.2891" fill="#84BE84" rx="3" ry="3" style="stroke:#038048;stroke-width:1.0;"/><text fill="#000000" font-family="sans-serif" font-size="14" lengthAdjust="spacing" textLength="259" x="1150" y="481.6357">GetSuruburiPartiLaterale() : GameObject</text><ellipse cx="1141" cy="494.5859" fill="#84BE84" rx="3" ry="3" style="stroke:#038048;stroke-width:1.0;"/><text fill="#000000" font-family="sans-serif" font-size="14" lengthAdjust="spacing" textLength="212" x="1150" y="497.9326">GetDezasamblare() : GameObject</text></g><!--class ExoMovements--><g id="elem_ExoMovements"><rect codeLine="59" fill="#F1F1F1" height="129.4844" id="ExoMovements" rx="2.5" ry="2.5" style="stroke:#181818;stroke-width:0.5;" width="236" x="1502.5" y="245.5"/><ellipse cx="1567.75" cy="261.5" fill="#ADD1B2" rx="11" ry="11" style="stroke:#181818;stroke-width:1.0;"/><path d="M1567.6875,257.3281 Q1566.9375,257.3281 1566.375,257.625 Q1565.8125,257.9063 1565.4219,258.4375 Q1565.0313,258.9688 1564.8281,259.75 Q1564.6406,260.5156 1564.6406,261.4688 Q1564.6406,262.4375 1564.8125,263.2031 Q1565,263.9531 1565.3594,264.4688 Q1565.7344,264.9844 1566.3125,265.2656 Q1566.8906,265.5313 1567.6875,265.5313 Q1568.4219,265.5313 1569.1563,265.3594 Q1569.9063,265.1875 1570.7813,264.8906 L1570.7813,267.0469 Q1570.375,267.2031 1569.9844,267.3281 Q1569.5938,267.4375 1569.1875,267.5156 Q1568.7813,267.5938 1568.3594,267.625 Q1567.9375,267.6719 1567.4375,267.6719 Q1566.0313,267.6719 1565,267.2188 Q1563.9844,266.7656 1563.3125,265.9531 Q1562.6406,265.1406 1562.3125,264 Q1561.9844,262.8438 1561.9844,261.4531 Q1561.9844,260.0781 1562.3594,258.9219 Q1562.7344,257.7656 1563.4531,256.9375 Q1564.1719,256.1094 1565.2344,255.6563 Q1566.2969,255.1875 1567.6875,255.1875 Q1568.5938,255.1875 1569.5,255.4219 Q1570.4063,255.6406 1571.2344,256.0469 L1570.4063,258.1406 Q1569.7188,257.8125 1569.0313,257.5781 Q1568.3438,257.3281 1567.6875,257.3281 Z " fill="#000000"/><text fill="#000000" font-family="sans-serif" font-size="14" lengthAdjust="spacing" textLength="97" x="1588.25" y="266.3467">ExoMovements</text><line style="stroke:#181818;stroke-width:0.5;" x1="1503.5" x2="1737.5" y1="277.5" y2="277.5"/><ellipse cx="1513.5" cy="291.1484" fill="none" rx="3" ry="3" style="stroke:#038048;stroke-width:1.0;"/><text fill="#000000" font-family="sans-serif" font-size="14" lengthAdjust="spacing" textLength="158" x="1522.5" y="294.4951">maxRotation : float = 45f</text><ellipse cx="1513.5" cy="307.4453" fill="none" rx="3" ry="3" style="stroke:#038048;stroke-width:1.0;"/><text fill="#000000" font-family="sans-serif" font-size="14" lengthAdjust="spacing" textLength="119" x="1522.5" y="310.792">minRotation : float</text><ellipse cx="1513.5" cy="323.7422" fill="none" rx="3" ry="3" style="stroke:#038048;stroke-width:1.0;"/><text fill="#000000" font-family="sans-serif" font-size="14" lengthAdjust="spacing" textLength="159" x="1522.5" y="327.0889">resetDuration : float = 1f</text><ellipse cx="1513.5" cy="340.0391" fill="none" rx="3" ry="3" style="stroke:#038048;stroke-width:1.0;"/><text fill="#000000" font-family="sans-serif" font-size="14" lengthAdjust="spacing" textLength="210" x="1522.5" y="343.3857">pauseBetweenJoints : float = 0.3f</text><line style="stroke:#181818;stroke-width:0.5;" x1="1503.5" x2="1737.5" y1="350.6875" y2="350.6875"/><ellipse cx="1513.5" cy="364.3359" fill="#84BE84" rx="3" ry="3" style="stroke:#038048;stroke-width:1.0;"/><text fill="#000000" font-family="sans-serif" font-size="14" lengthAdjust="spacing" textLength="195" x="1522.5" y="367.6826">ResetJointsSequentially() : void</text></g><!--reverse link MonoBehaviour to ToggleMenuFollow--><g id="link_MonoBehaviour_ToggleMenuFollow"><path codeLine="8" d="M686.59,36.29 C551.62,44.39 299.42,65.79 225.5,115 C179.23,145.8 148.13,201.52 129.53,245.37 " fill="none" id="MonoBehaviour-backto-ToggleMenuFollow" style="stroke:#181818;stroke-width:1.0;"/><polygon fill="none" points="686.44,29.28,706.81,35.12,687.25,43.26,686.44,29.28" style="stroke:#181818;stroke-width:1.0;"/></g><!--link ToggleMenuFollow to GameObject--><g id="link_ToggleMenuFollow_GameObject"><path codeLine="9" d="M96.58,374.55 C93.41,432.87 94.36,516.58 99.41,559.79 " fill="none" id="ToggleMenuFollow-to-GameObject" style="stroke:#181818;stroke-width:1.0;"/><polygon fill="#181818" points="100.05,564.86,102.9128,555.4364,99.4351,559.898,94.9736,556.4202,100.05,564.86" style="stroke:#181818;stroke-width:1.0;"/><text fill="#000000" font-family="sans-serif" font-size="13" lengthAdjust="spacing" textLength="35" x="58.6566" y="553.8362">menu</text></g><!--link ToggleMenuFollow to GameObject--><g id="link_ToggleMenuFollow_GameObject"><path codeLine="10" d="M119.06,374.55 C122.42,432.87 121.42,516.58 116.07,559.79 " fill="none" id="ToggleMenuFollow-to-GameObject-1" style="stroke:#181818;stroke-width:1.0;"/><polygon fill="#181818" points="115.39,564.86,120.538,556.4637,116.0471,559.9034,112.6074,555.4124,115.39,564.86" style="stroke:#181818;stroke-width:1.0;"/><text fill="#000000" font-family="sans-serif" font-size="13" lengthAdjust="spacing" textLength="72" x="126.6368" y="553.8362">exoSkeleton</text></g><!--link ToggleMenuFollow to TMP_Text--><g id="link_ToggleMenuFollow_TMP_Text"><path codeLine="11" d="M138.93,374.55 C167.89,433.11 209.51,517.26 230.81,560.32 " fill="none" id="ToggleMenuFollow-to-TMP_Text" style="stroke:#181818;stroke-width:1.0;"/><polygon fill="#181818" points="233.05,564.86,232.6531,555.0191,230.8368,560.3765,225.4795,558.5603,233.05,564.86" style="stroke:#181818;stroke-width:1.0;"/><text fill="#000000" font-family="sans-serif" font-size="13" lengthAdjust="spacing" textLength="49" x="236.3941" y="553.8362">tmpText</text></g><!--reverse link MonoBehaviour to ControlEkoSkeleton--><g id="link_MonoBehaviour_ControlEkoSkeleton"><path codeLine="16" d="M686.68,36.28 C616.95,43.69 519.75,63.35 451.5,115 C399.6,154.28 367.32,224.87 351.16,269.2 " fill="none" id="MonoBehaviour-backto-ControlEkoSkeleton" style="stroke:#181818;stroke-width:1.0;"/><polygon fill="none" points="686.36,29.28,706.92,34.39,687.66,43.22,686.36,29.28" style="stroke:#181818;stroke-width:1.0;"/></g><!--reverse link MonoBehaviour to SliderAngleDisplay--><g id="link_MonoBehaviour_SliderAngleDisplay"><path codeLine="19" d="M703.03,64.71 C680.03,77.9 655.74,94.82 637.5,115 C590.54,166.96 562.48,246.87 550.83,285.92 " fill="none" id="MonoBehaviour-backto-SliderAngleDisplay" style="stroke:#181818;stroke-width:1.0;"/><polygon fill="none" points="699.74,58.53,720.66,55.15,706.42,70.84,699.74,58.53" style="stroke:#181818;stroke-width:1.0;"/></g><!--reverse link MonoBehaviour to ExoGrabApple--><g id="link_MonoBehaviour_ExoGrabApple"><path codeLine="29" d="M773.5,75.19 C773.5,116.15 773.5,178.69 773.5,228.78 " fill="none" id="MonoBehaviour-backto-ExoGrabApple" style="stroke:#181818;stroke-width:1.0;"/><polygon fill="none" points="766.5,75.14,773.5,55.14,780.5,75.14,766.5,75.14" style="stroke:#181818;stroke-width:1.0;"/></g><!--reverse link MonoBehaviour to EnableThumbCollider--><g id="link_MonoBehaviour_EnableThumbCollider"><path codeLine="32" d="M843.04,64.74 C866.17,78 890.78,94.97 909.5,115 C958.1,167.02 989.69,246.91 1003.12,285.94 " fill="none" id="MonoBehaviour-backto-EnableThumbCollider" style="stroke:#181818;stroke-width:1.0;"/><polygon fill="none" points="839.57,70.82,825.35,55.11,846.26,58.52,839.57,70.82" style="stroke:#181818;stroke-width:1.0;"/></g><!--link EnableThumbCollider to Collider--><g id="link_EnableThumbCollider_Collider"><path codeLine="33" d="M1010.5,334.14 C1010.5,384.65 1010.5,504.65 1010.5,559.62 " fill="none" id="EnableThumbCollider-to-Collider" style="stroke:#181818;stroke-width:1.0;"/><polygon fill="#181818" points="1010.5,564.73,1014.5,555.73,1010.5,559.73,1006.5,555.73,1010.5,564.73" style="stroke:#181818;stroke-width:1.0;"/><text fill="#000000" font-family="sans-serif" font-size="13" lengthAdjust="spacing" textLength="85" x="915.1406" y="554.0691">thumbCollider</text></g><!--reverse link MonoBehaviour to GameManager--><g id="link_MonoBehaviour_GameManager"><path codeLine="57" d="M860.59,39.18 C932.4,48.29 1034.72,68.84 1112.5,115 C1118.38,118.49 1124.18,122.24 1129.89,126.2 " fill="none" id="MonoBehaviour-backto-GameManager" style="stroke:#181818;stroke-width:1.0;"/><polygon fill="none" points="859.32,46.08,840.27,36.8,860.95,32.17,859.32,46.08" style="stroke:#181818;stroke-width:1.0;"/></g><!--link GameManager to GameManager--><g id="link_GameManager_GameManager"><path codeLine="58" d="M1449.36,264.18 C1470.21,272.06 1484,287.33 1484,310 C1484,330.9 1472.28,345.51 1454.12,353.84 " fill="none" id="GameManager-to-GameManager" style="stroke:#181818;stroke-width:1.0;"/><polygon fill="#181818" points="1449.36,355.82,1459.2058,356.0659,1453.9783,353.904,1456.1402,348.6766,1449.36,355.82" style="stroke:#181818;stroke-width:1.0;"/><text fill="#000000" font-family="sans-serif" font-size="13" lengthAdjust="spacing" textLength="50" x="1444.4055" y="358.1666">Instance</text></g><!--reverse link MonoBehaviour to ExoMovements--><g id="link_MonoBehaviour_ExoMovements"><path codeLine="66" d="M860.31,33.38 C1026.21,37.43 1380.99,53.26 1484.5,115 C1534.49,144.81 1570.76,200.94 1593.22,245.18 " fill="none" id="MonoBehaviour-backto-ExoMovements" style="stroke:#181818;stroke-width:1.0;"/><polygon fill="none" points="859.93,40.38,840.09,32.93,860.25,26.38,859.93,40.38" style="stroke:#181818;stroke-width:1.0;"/></g><!--SRC=[bPLRRzem583VyoiidZPDL5ifUvYsIQKKjAe8HBAzJYVX9BWuTcOxNDhjly-v418IcfGdu7pdVh77G2dYY21WE4CUJmHZOaTUB68-7uYV_XnJfO5xIBuGdmdGv1lvT3NqSsQBKbCFsDpt5UeZamlNGj9dmVMvs9ZuU3IGUSyyltjlYAsWguhideFBS7KI_hDcWeiHhc5BHIp9rx_zVYqBgvPMl_-Tz4BpkqUc4EBSVK9FNy1mB-mDCjI2Tw1r63curptYp1Q_as-MbrRspkGk1RlV5CQAskQfxONA9SsvdzUbCVMwczo_pUWAvIqtXamN8mO7ux_HH9tCJPW8fnBSsoXYM0J_92ZNrmx807MgKshieEXiIWsQgPjXXRfffZvNRGsRgUigDHDR7CSID3NbBiziWKKGAnoXtY7oXqH5bGVpQb2CfgH1W3B9tyO_CPebQEb4kLh70gRJwwpZqBqppKpAVAa93QZLf9xDNFcl7YaKCg_9oCw0Gv1wozAPedv4Noz0weLGDAbFceuZWIjVoF34BMcmxWHEf9czBk08l4qNpipo5Wz2leKTYnstFOcxDeMVKM9MTRNx85IAbFQ_nZo2HWdCDYSoWAxqM294kXstu_O05f9oZqR0Bf99pWWJUCLXXjYH2UyYOySoTkV7W_wgkIhQmUol_1Lf2J0l7xHKkmgt5JiD89OqqQAvqkLmn_WC2aANWQn1ZKjTsaIhl9Nf4l_WsTlQgs35vKrEcNcmp7qwxd08-wNGvxVjT4r3oi_bkKIYUO2Rxk9Rh-8oCPG1sLNK51Wxj5_68fl_]--></g></svg>