<?xml version="1.0" encoding="us-ascii" standalone="no"?><svg xmlns="http://www.w3.org/2000/svg" xmlns:xlink="http://www.w3.org/1999/xlink" contentStyleType="text/css" height="251px" preserveAspectRatio="none" style="width:250px;height:251px;background:#FFFFFF;" version="1.1" viewBox="0 0 250 251" width="250px" zoomAndPan="magnify"><defs/><g><!--class ExoMovements--><g id="elem_ExoMovements"><rect codeLine="1" fill="#F1F1F1" height="129.4844" id="ExoMovements" rx="2.5" ry="2.5" style="stroke:#181818;stroke-width:0.5;" width="236" x="7" y="115"/><ellipse cx="72.25" cy="131" fill="#ADD1B2" rx="11" ry="11" style="stroke:#181818;stroke-width:1.0;"/><path d="M72.1875,126.8281 Q71.4375,126.8281 70.875,127.125 Q70.3125,127.4063 69.9219,127.9375 Q69.5313,128.4688 69.3281,129.25 Q69.1406,130.0156 69.1406,130.9688 Q69.1406,131.9375 69.3125,132.7031 Q69.5,133.4531 69.8594,133.9688 Q70.2344,134.4844 70.8125,134.7656 Q71.3906,135.0313 72.1875,135.0313 Q72.9219,135.0313 73.6563,134.8594 Q74.4063,134.6875 75.2813,134.3906 L75.2813,136.5469 Q74.875,136.7031 74.4844,136.8281 Q74.0938,136.9375 73.6875,137.0156 Q73.2813,137.0938 72.8594,137.125 Q72.4375,137.1719 71.9375,137.1719 Q70.5313,137.1719 69.5,136.7188 Q68.4844,136.2656 67.8125,135.4531 Q67.1406,134.6406 66.8125,133.5 Q66.4844,132.3438 66.4844,130.9531 Q66.4844,129.5781 66.8594,128.4219 Q67.2344,127.2656 67.9531,126.4375 Q68.6719,125.6094 69.7344,125.1563 Q70.7969,124.6875 72.1875,124.6875 Q73.0938,124.6875 74,124.9219 Q74.9063,125.1406 75.7344,125.5469 L74.9063,127.6406 Q74.2188,127.3125 73.5313,127.0781 Q72.8438,126.8281 72.1875,126.8281 Z " fill="#000000"/><text fill="#000000" font-family="sans-serif" font-size="14" lengthAdjust="spacing" textLength="97" x="92.75" y="135.8467">ExoMovements</text><line style="stroke:#181818;stroke-width:0.5;" x1="8" x2="242" y1="147" y2="147"/><ellipse cx="18" cy="160.6484" fill="none" rx="3" ry="3" style="stroke:#038048;stroke-width:1.0;"/><text fill="#000000" font-family="sans-serif" font-size="14" lengthAdjust="spacing" textLength="158" x="27" y="163.9951">maxRotation : float = 45f</text><ellipse cx="18" cy="176.9453" fill="none" rx="3" ry="3" style="stroke:#038048;stroke-width:1.0;"/><text fill="#000000" font-family="sans-serif" font-size="14" lengthAdjust="spacing" textLength="119" x="27" y="180.292">minRotation : float</text><ellipse cx="18" cy="193.2422" fill="none" rx="3" ry="3" style="stroke:#038048;stroke-width:1.0;"/><text fill="#000000" font-family="sans-serif" font-size="14" lengthAdjust="spacing" textLength="159" x="27" y="196.5889">resetDuration : float = 1f</text><ellipse cx="18" cy="209.5391" fill="none" rx="3" ry="3" style="stroke:#038048;stroke-width:1.0;"/><text fill="#000000" font-family="sans-serif" font-size="14" lengthAdjust="spacing" textLength="210" x="27" y="212.8857">pauseBetweenJoints : float = 0.3f</text><line style="stroke:#181818;stroke-width:0.5;" x1="8" x2="242" y1="220.1875" y2="220.1875"/><ellipse cx="18" cy="233.8359" fill="#84BE84" rx="3" ry="3" style="stroke:#038048;stroke-width:1.0;"/><text fill="#000000" font-family="sans-serif" font-size="14" lengthAdjust="spacing" textLength="195" x="27" y="237.1826">ResetJointsSequentially() : void</text></g><!--class MonoBehaviour--><g id="elem_MonoBehaviour"><rect fill="#F1F1F1" height="48" id="MonoBehaviour" rx="2.5" ry="2.5" style="stroke:#181818;stroke-width:0.5;" width="133" x="58.5" y="7"/><ellipse cx="73.5" cy="23" fill="#ADD1B2" rx="11" ry="11" style="stroke:#181818;stroke-width:1.0;"/><path d="M73.4375,18.8281 Q72.6875,18.8281 72.125,19.125 Q71.5625,19.4063 71.1719,19.9375 Q70.7813,20.4688 70.5781,21.25 Q70.3906,22.0156 70.3906,22.9688 Q70.3906,23.9375 70.5625,24.7031 Q70.75,25.4531 71.1094,25.9688 Q71.4844,26.4844 72.0625,26.7656 Q72.6406,27.0313 73.4375,27.0313 Q74.1719,27.0313 74.9063,26.8594 Q75.6563,26.6875 76.5313,26.3906 L76.5313,28.5469 Q76.125,28.7031 75.7344,28.8281 Q75.3438,28.9375 74.9375,29.0156 Q74.5313,29.0938 74.1094,29.125 Q73.6875,29.1719 73.1875,29.1719 Q71.7813,29.1719 70.75,28.7188 Q69.7344,28.2656 69.0625,27.4531 Q68.3906,26.6406 68.0625,25.5 Q67.7344,24.3438 67.7344,22.9531 Q67.7344,21.5781 68.1094,20.4219 Q68.4844,19.2656 69.2031,18.4375 Q69.9219,17.6094 70.9844,17.1563 Q72.0469,16.6875 73.4375,16.6875 Q74.3438,16.6875 75.25,16.9219 Q76.1563,17.1406 76.9844,17.5469 L76.1563,19.6406 Q75.4688,19.3125 74.7813,19.0781 Q74.0938,18.8281 73.4375,18.8281 Z " fill="#000000"/><text fill="#000000" font-family="sans-serif" font-size="14" lengthAdjust="spacing" textLength="101" x="87.5" y="27.8467">MonoBehaviour</text><line style="stroke:#181818;stroke-width:0.5;" x1="59.5" x2="190.5" y1="39" y2="39"/><line style="stroke:#181818;stroke-width:0.5;" x1="59.5" x2="190.5" y1="47" y2="47"/></g><!--reverse link MonoBehaviour to ExoMovements--><g id="link_MonoBehaviour_ExoMovements"><path codeLine="8" d="M125,75.6 C125,87.95 125,101.66 125,114.93 " fill="none" id="MonoBehaviour-backto-ExoMovements" style="stroke:#181818;stroke-width:1.0;"/><polygon fill="none" points="118,75.21,125,55.21,132,75.21,118,75.21" style="stroke:#181818;stroke-width:1.0;"/></g><!--SRC=[NO_B2i9034Nt_Oei5QaewaPqKtGZT5E_86YAWUcapikA-kzEqK5ijkVS9FUaq5hOTr9Ae8Qqi_388Cu46kmgSUXODAoXLe8Ejh1SrOcp7l8lCMJ9xRmPPkSfsgAtL92x4Uc3S7_rPyscY-HL_QAFSAIhZ-ynAdKVZQCUXC_PAoj5Iq4N32pUmEQPvtzjtW00]--></g></svg>